<svg width="333" height="94" viewBox="0 0 333 94" fill="none" xmlns="http://www.w3.org/2000/svg">
<g clip-path="url(#clip0_121_77)">
<path d="M201.062 65.6412C200.776 67.2835 200.628 68.9635 200.178 70.5597C198.472 76.6219 202.941 84.7957 212.115 85.1895C220.683 85.554 228.164 82.3951 235.178 77.862C236.058 77.2923 236.837 76.5675 237.73 76.0186C241.05 73.9742 241.841 71.1211 240.544 67.5726C240.089 66.3283 239.803 64.9793 239.129 63.8649C237.65 61.435 238.358 59.2271 239.39 56.948C240.873 58.4939 242.313 59.998 244.002 61.7576C245.59 59.3402 246.791 57.2999 248.202 55.423C250.043 52.9722 251.799 50.3789 254.04 48.3302C259.226 43.5918 266.163 44.3795 270.312 50.0604C271.092 51.1288 271.509 52.792 271.387 54.1159C271.054 57.7314 269.584 60.9364 266.197 62.7295C263.122 64.3592 259.954 65.8507 256.707 67.095C255.291 67.6354 254.415 68.2136 254.209 69.7009C253.893 71.9758 253.295 74.2423 253.265 76.5172C253.211 80.6355 255.86 83.476 260.013 83.5388C262.326 83.5723 264.807 83.1492 266.943 82.2736C272.941 79.8143 277.865 75.7673 282.195 71.008C283.139 69.969 284.032 68.8253 283.143 67.493C280.898 67.493 278.796 67.648 276.724 67.4595C273.084 67.1243 271.656 65.1552 272.355 61.5774C272.566 60.5049 272.987 59.4156 273.556 58.4814C276.113 54.2625 279.487 54.0489 282.638 57.832C282.861 58.1001 283.072 58.3808 283.278 58.6615C285.595 61.8581 285.616 61.9084 289.344 60.1739C291.243 59.2899 293.097 58.2761 294.866 57.1575C296.61 56.0556 296.572 54.6605 294.79 53.6299C293.977 53.1565 292.962 52.9051 292.014 52.8171C290.203 52.6496 288.366 52.7417 286.551 52.5993C284.192 52.415 282.878 51.0198 282.718 48.6695C282.503 45.5023 283.851 42.955 286.092 40.8687C287.714 39.3604 289.601 39.6495 291.374 40.6215C293.952 42.0334 295.557 44.3124 296.618 46.9644C298.008 50.4459 298.27 54.0949 297.191 57.6393C296.698 59.2522 295.527 60.949 294.175 61.9545C292.01 63.5632 289.394 64.5603 287.065 65.9638C286.336 66.4037 285.553 67.2626 285.397 68.046C284.702 71.5987 283.244 74.7492 280.515 77.1079C276.715 80.3883 272.823 83.5807 268.775 86.5469C267.25 87.6613 265.232 88.2604 263.35 88.7087C257.537 90.0912 252.545 86.7312 252.178 80.8031C251.964 77.3258 252.81 73.7773 253.219 70.2665C253.299 69.5919 253.581 68.9426 253.767 68.2974C250.119 67.8994 246.568 67.5139 242.861 67.1118C242.718 68.6242 242.562 70.4005 242.372 72.1727C242.065 75.0551 240.953 77.5101 238.699 79.4624C232.166 85.1266 224.874 89.2365 216.159 90.3928C206.028 91.7377 199.377 86.174 198.931 76.0396C198.771 72.4031 199.074 68.8378 201.079 65.6454L201.062 65.6412ZM246.26 61.8078C246.576 62.0466 246.719 62.2142 246.896 62.2812C252.09 64.1665 265.443 60.9406 269.028 56.8893C269.293 56.5877 269.382 55.8336 269.192 55.4817C266.774 50.9947 259.609 49.055 255.148 51.7237C251.121 54.1327 248.606 57.8823 246.26 61.8078ZM292.01 47.9112C290.746 45.8709 289.491 44.8822 287.667 44.9493C287.115 44.9702 286.589 45.5777 286.05 45.917C286.454 46.4156 286.783 47.2283 287.28 47.3498C288.615 47.6724 290.022 47.7018 292.006 47.9112H292.01ZM280.485 62.5033C279.529 60.6222 278.341 59.7131 276.576 59.9854C275.957 60.0818 275.426 60.7269 274.853 61.1208C275.308 61.5816 275.717 62.365 276.227 62.4363C277.528 62.6248 278.88 62.4991 280.485 62.4991V62.5033Z" fill="white"/>
<path d="M1.84517 72.0847C1.75671 73.0273 1.54189 73.9783 1.59665 74.9126C1.80726 78.6454 1.91678 82.4034 2.4349 86.0986C2.70448 88.0257 4.10297 89.5507 6.28916 89.7183C8.34477 89.8733 9.50315 88.4363 10.3161 86.8527C11.6851 84.184 12.6708 81.2932 14.2378 78.7544C15.7542 76.2993 17.5866 73.9448 19.6759 71.9548C21.7399 69.9857 23.7155 70.5052 25.2909 72.8723C25.948 73.861 26.5714 74.8749 27.2033 75.8762C28.7997 78.415 31.1123 79.4791 34.1073 79.4875C39.8276 79.5043 42.8689 76.9696 43.1048 71.297C43.6102 59.1433 42.9868 47.0356 40.7838 35.0494C40.2657 32.2341 40.2951 29.5402 41.6389 26.3855C42.0643 27.6382 42.4097 28.4677 42.633 29.3265C45.3541 39.8213 45.7038 50.559 45.9944 61.3092C46.1039 65.3479 46.3103 69.4076 46.8495 73.4085C47.5445 78.591 51.3693 80.2165 55.6237 77.1875C56.5252 76.5423 57.2328 75.0299 57.2665 73.8903C57.3676 70.6225 57.1402 67.3379 56.9338 64.0701C56.3146 54.1829 55.7333 44.2915 54.9287 34.4168C54.7097 31.7062 54.0652 29.0961 56.2598 26.486C57.7804 30.4493 59.2337 34.2283 60.6827 38.0072C60.5058 38.1329 60.3331 38.2544 60.1562 38.3801C59.5665 37.9946 58.9767 37.605 58.0879 37.0227C58.0879 37.7768 58.0542 38.3465 58.0922 38.9079C58.7114 48.0285 59.4822 57.1407 59.8866 66.2696C60.0298 69.5668 59.5117 72.9435 58.8672 76.2029C58.5176 77.9751 57.4266 79.676 56.382 81.2136C54.9287 83.3544 52.7509 84.2049 50.1393 83.7566C47.515 83.3042 45.9059 81.7247 45.1604 79.2278C44.8655 78.239 44.6212 77.2378 44.2673 75.9222C44.0315 76.4627 43.9051 76.6805 43.8335 76.911C41.8958 83.2623 36.9758 86.1614 30.5057 84.3934C28.9051 83.9577 27.4644 82.5333 26.2302 81.289C25.2235 80.271 24.6675 78.8214 23.8419 77.6064C22.5824 75.7463 21.3271 75.3022 19.6506 76.7811C17.7593 78.4527 16.0996 80.4972 14.7643 82.6422C13.4501 84.7579 12.6877 87.2088 11.6472 89.4963C11.3018 90.2546 10.9143 91.0129 10.4256 91.6874C8.18049 94.775 5.16026 94.8085 3.14256 91.5868C2.04736 89.8398 1.18805 87.8498 0.686786 85.8556C-0.362079 81.6619 -0.155676 77.4137 0.956374 73.2284C1.07011 72.8011 1.31021 72.4114 1.48713 72.0009L1.84096 72.0888L1.84517 72.0847Z" fill="white"/>
<path d="M68.7115 83.9116C69.5498 83.7021 70.4934 83.1407 71.2095 83.346C75.1817 84.4897 79.0106 83.8194 82.8102 82.705C89.335 80.7862 95.228 77.5854 100.797 73.752C101.142 73.5132 101.458 73.2325 101.761 72.9434C101.905 72.8052 101.985 72.5999 102.326 72.0427C101.365 71.6196 100.51 71.1084 99.5836 70.8571C96.9467 70.1365 94.2466 69.6379 91.6392 68.8377C87.6417 67.606 86.4917 65.838 87.2499 61.7994C88.56 54.8154 92.3089 49.3188 98.1388 45.2592C100.506 43.6085 102.157 43.6546 103.417 45.1209C104.921 46.8679 104.702 49.8886 102.941 51.711C100.262 48.7574 99.0528 48.5689 96.0494 51.5183C93.7327 53.7974 91.7108 56.4242 89.8405 59.0929C88.4715 61.0494 88.859 62.034 91.1421 62.9305C93.4041 63.8187 95.8009 64.3843 98.1388 65.0797C98.6737 65.2389 99.234 65.3185 99.7689 65.4736C104.6 66.877 105.961 70.103 103.615 74.5815C103.358 75.0759 103.004 75.5284 102.785 76.0353C101.862 78.1594 103.076 80.5642 105.321 81.1004C109.735 82.1562 113.021 79.7053 112.844 75.1932C112.583 68.6408 112.069 62.101 111.66 55.5528C111.285 49.566 110.957 43.575 110.498 37.5966C110.308 35.1331 109.377 32.6697 110.94 30.3278C111.13 30.0471 111.298 29.7538 111.736 29.0583C113.316 33.2269 114.761 37.0477 116.21 40.8728C116.02 40.9691 115.83 41.0613 115.641 41.1576C115.034 40.7555 114.428 40.3533 113.48 39.7248C113.657 42.5234 113.804 44.9869 113.973 47.4461C114.47 54.7568 115.194 62.0591 115.388 69.3782C115.481 72.8722 114.824 76.4501 114.04 79.8813C113.644 81.6157 112.389 83.2622 111.201 84.6825C109.424 86.8065 106.972 87.0034 104.466 86.1027C102.014 85.2229 101.163 83.2538 101.151 80.8155C101.146 79.9944 101.151 79.1774 101.151 77.8871C100.228 78.5448 99.6383 78.9596 99.057 79.3785C92.271 84.2761 84.9753 88.0676 76.5338 89.1024C72.907 89.5465 69.4066 88.9599 66.3779 86.3876C66.7318 85.8304 67.0519 85.3318 67.3678 84.8291C67.8185 84.5232 68.2693 84.2216 68.72 83.9158L68.7115 83.9116Z" fill="white"/>
<path d="M164.432 78.2557C163.455 78.616 162.452 78.9302 161.5 79.3492C157.246 81.2261 152.903 82.793 148.189 82.9522C142.056 83.1617 138.012 80.2918 136.197 74.5229C134.343 68.6408 136.517 58.276 140.927 53.6089C140.666 54.3127 140.35 54.9998 140.156 55.7204C139.196 59.2647 137.705 62.7797 137.456 66.3785C136.984 73.2409 141.47 77.7446 148.362 77.5519C151.597 77.4597 155.021 76.9067 157.97 75.6499C163.29 73.3875 168.32 70.4465 173.459 67.761C173.947 67.5055 174.36 67.0991 174.773 66.7262C174.971 66.5503 175.093 66.2947 175.46 65.7752C174.478 65.3479 173.653 64.8619 172.764 64.6231C170.127 63.9109 167.431 63.3956 164.815 62.6121C160.767 61.4013 159.444 59.4993 160.358 55.4187C161.866 48.6652 165.27 42.9968 171.184 39.0755C173.636 37.4541 175.388 37.5086 176.639 39.0503C177.941 40.6507 177.633 43.8389 176.011 45.5189C173.48 42.5486 172.275 42.2176 169.436 44.8989C166.934 47.2618 164.84 50.1022 162.856 52.9344C161.563 54.7777 161.993 55.7078 164.154 56.6379C165.813 57.3543 167.591 57.8151 169.335 58.3304C170.611 58.7075 171.925 58.9463 173.202 59.315C177.338 60.5006 178.707 62.8425 177.22 66.8896C176.597 68.5822 175.426 70.2705 174.057 71.4436C171.736 73.4336 169.061 75.0173 166.538 76.7727C165.801 77.288 165.072 77.82 164.339 78.3437L164.428 78.2557H164.432Z" fill="white"/>
<path d="M164.432 78.2558L164.343 78.3438C164.912 78.5868 165.759 78.6748 165.999 79.1021C168.362 83.279 170.717 84.427 175.384 83.2162C182.616 81.3351 188.606 77.2461 194.061 72.3318C194.52 71.9213 194.609 70.6351 194.331 69.9815C193.733 68.5864 192.755 67.3547 191.98 66.0308C190.114 62.8384 191.395 58.9757 194.794 57.5177C196.083 56.9647 197.376 56.4201 198.678 55.909C201.096 54.9621 203.518 54.0656 204.883 51.5812C205.203 50.9989 205.843 50.5674 206.395 50.1442C209.436 47.8148 212.448 48.6402 213.24 52.3898C213.796 55.0376 213.821 57.9283 213.404 60.6096C212.949 63.5423 211.702 64.0659 208.872 63.0647C206.837 62.3441 204.971 61.171 202.953 60.4001C202.018 60.044 200.801 59.8471 199.878 60.1236C197.966 60.6976 196.163 61.636 194.209 62.4697C194.925 63.9822 195.468 65.2516 196.108 66.4749C198.017 70.1072 196.921 73.4169 194.466 76.1024C189.933 81.0544 184.428 84.8124 178.244 87.4937C176.723 88.1514 175.03 88.5452 173.375 88.738C167.722 89.4083 162.995 83.8153 164.423 78.26L164.432 78.2558ZM204.849 54.7066C204.836 55.0962 204.824 55.4858 204.811 55.8755C206.766 56.6966 208.716 57.5177 210.67 58.3347C210.902 58.0079 211.134 57.6769 211.365 57.3502C210.388 56.307 209.584 54.9035 208.383 54.3379C207.469 53.9064 206.045 54.5432 204.849 54.7024V54.7066Z" fill="white"/>
<path d="M68.7111 83.9116C68.2604 84.2174 67.8097 84.5191 67.359 84.8249C63.0624 87.28 58.3488 88.2896 53.3741 88.608C53.9259 88.2394 54.4651 87.8456 55.0337 87.502C58.5636 85.357 62.1652 83.3209 65.6151 81.0585C75.792 74.3888 78.947 63.2783 73.7027 52.373C72.1652 49.1764 70.3328 46.0971 68.3952 43.1142C63.2225 35.1457 58.1551 27.0935 52.5485 19.4351C50.4676 16.5946 49.8526 14.0013 50.4423 10.2307C54.1702 13.3728 57.658 16.3181 61.15 19.2633C61.0489 19.4351 60.952 19.6026 60.8509 19.7744C59.9453 19.5943 59.0438 19.4141 57.6791 19.1376C58.3572 20.1682 58.8122 20.8344 59.2334 21.5131C64.3303 29.6826 69.6673 37.7223 74.4483 46.072C78.787 53.6508 79.7389 61.879 77.1147 70.3418C75.4929 75.5745 72.5906 80.0447 68.7111 83.9074V83.9116Z" fill="white"/>
<path d="M207.414 82.3825C211.125 80.1662 214.836 77.95 218.543 75.7295C228.484 69.7637 230.519 64.5268 227.044 53.4958C225.098 47.3247 222.115 41.6353 218.29 36.4152C215.152 32.1335 211.601 28.1283 208.712 23.6958C207.633 22.0452 207.903 19.5273 207.558 17.4032C207.827 17.2566 208.101 17.1057 208.371 16.9591C211.863 19.9001 215.35 22.8412 218.842 25.7822C218.741 25.9582 218.64 26.1341 218.539 26.3101C217.629 26.1258 216.719 25.9414 215.266 25.6481C216.087 26.5615 216.572 27.0935 217.052 27.6298C224.078 35.4684 228.931 44.4046 230.266 54.9077C231.311 63.1275 229.904 70.7733 223.585 76.8816C219.108 81.2094 213.261 81.7289 207.671 82.9983C207.587 82.7888 207.503 82.5836 207.423 82.3741L207.414 82.3825Z" fill="white"/>
<path d="M296.526 80.3087C300.502 78.3564 303.826 75.6625 306.113 71.8291C307.802 68.9928 307.554 65.9051 306.998 62.8636C305.351 53.8687 301.037 46.093 295.629 38.8577C292.869 35.1709 289.748 31.7229 287.305 27.8476C286.286 26.2305 286.61 23.7754 286.328 21.7016C286.576 21.576 286.825 21.4503 287.078 21.3246C290.574 24.2614 294.07 27.1983 297.566 30.1351C297.465 30.3027 297.368 30.4661 297.267 30.6337C296.357 30.4577 295.447 30.2818 294.057 30.0136C294.862 30.9353 295.338 31.4967 295.835 32.0455C302.339 39.2557 306.884 47.4713 308.628 57.0737C310.422 66.9567 308.767 75.8259 300.742 82.7428C299.98 83.2665 299.222 83.7901 298.459 84.3096C295.022 85.202 291.585 86.1111 288.139 86.9826C287.516 87.1418 286.858 87.1543 286.104 86.8527C289.601 84.6532 293.097 82.4537 296.589 80.2542L296.534 80.317L296.526 80.3087Z" fill="white"/>
<path d="M298.455 84.3013C299.217 83.7776 299.975 83.2539 300.738 82.7344C311.639 84.1505 318.404 77.2001 325.308 70.6226C326.892 69.1143 326.488 67.8952 324.331 67.3799C322.709 66.9944 320.999 66.9735 319.327 66.8185C315.241 66.4372 313.737 64.4011 314.786 60.4253C315.081 59.3067 315.607 58.1755 316.298 57.2496C319.083 53.4916 322.398 53.5922 325.195 57.3292C328.632 61.9167 330.275 71.075 323.775 76.5423C319.828 79.8646 315.81 83.124 311.606 86.1112C309.07 87.9126 305.978 88.8134 302.806 88.0928C301.307 87.7534 299.912 86.8108 298.581 85.9729C298.299 85.7969 298.489 84.8753 298.459 84.2971L298.455 84.3013ZM323.202 62.2352C322.073 60.0901 320.81 59.0344 318.88 59.2648C318.295 59.336 317.785 60.065 317.242 60.4923C317.697 60.9322 318.088 61.6486 318.615 61.7617C319.946 62.0466 321.34 62.0634 323.202 62.231V62.2352Z" fill="white"/>
<path d="M125.009 78.6999C125.881 77.133 126.748 75.5661 127.62 74.0035C130.582 68.6744 131.171 63.0898 129.587 57.2161C127.54 49.6331 123.943 42.8209 119.272 36.5534C116.352 32.6363 113.05 28.9746 110.434 24.8689C109.389 23.2308 109.739 20.7171 109.453 18.6014C109.714 18.4883 109.975 18.3794 110.236 18.2662C113.703 21.1947 117.17 24.1232 120.636 27.0474C120.556 27.236 120.476 27.4287 120.396 27.6172C119.465 27.4203 118.53 27.2234 117.052 26.9092C117.894 27.8351 118.391 28.3713 118.88 28.916C125.986 36.8677 130.906 45.9002 132.128 56.596C132.991 64.1623 131.875 71.3599 126.816 77.4933C126.386 78.017 125.889 78.4862 125.422 78.9764C125.287 78.8842 125.152 78.7879 125.017 78.6957L125.009 78.6999Z" fill="white"/>
<path d="M18.286 63.7559C15.1015 62.5703 14.7392 60.8275 15.6743 58.6112C15.7544 58.4227 15.7754 58.2048 15.8049 57.9996C16.2388 54.5851 17.4098 53.9902 20.3332 55.9509C21.58 56.7888 22.8732 57.8697 23.5387 59.1559C24.0442 60.132 23.8841 61.7198 23.446 62.8091C23.2102 63.3914 21.7653 63.4878 20.8723 63.8188C19.9625 64.1581 18.7999 64.2796 18.1933 64.9164C14.4486 68.842 9.77289 71.0331 4.54541 72.3109C8.93043 69.5835 13.3112 66.852 18.286 63.7559ZM18.623 61.259C18.8336 61.0914 19.04 60.9196 19.2506 60.7521C18.8799 59.977 18.5134 59.2061 18.1427 58.4311C17.4393 58.9045 16.7316 59.3779 15.5269 60.1865C17.0181 60.7018 17.8184 60.9825 18.6187 61.259H18.623ZM20.8176 58.8542C20.6364 58.9631 20.4553 59.0721 20.2742 59.181C20.1731 59.8387 20.072 60.4965 19.933 61.3889C20.965 61.5229 21.8538 61.6402 22.7426 61.7575C22.8437 61.5858 22.9448 61.4098 23.0459 61.238C22.3045 60.442 21.5631 59.646 20.8218 58.8542H20.8176Z" fill="white"/>
<path d="M105.11 16.6071C105.337 15.7106 105.573 14.7135 105.847 13.7331C106.129 12.7277 106.34 11.6845 106.786 10.7544C107.283 9.71122 107.856 8.47112 109.415 8.95292C110.67 9.33835 111.003 10.8047 110.312 12.4428C107.726 11.3451 107.523 11.4289 106.727 14.349C106.34 15.7567 106.1 17.2062 105.758 18.6265C104.701 23.038 101.988 26.2221 98.0583 28.3294C95.3751 29.7664 92.5234 30.9018 89.7517 32.1712C89.6463 31.9868 89.5452 31.8025 89.4399 31.6182C90.3919 31.0526 91.3608 30.5121 92.2917 29.913C95.632 27.7471 98.9724 25.5769 102.283 23.369C104.187 22.0954 104.63 20.3861 103.644 18.2997C103.197 17.3571 102.966 16.2846 102.393 15.4383C102.031 14.902 101.201 14.6925 100.603 14.2987C99.8823 13.8253 98.6733 13.377 98.6017 12.8073C98.5048 12.0238 99.103 10.9262 99.7559 10.3774C100.093 10.0925 101.546 10.457 101.879 10.9429C103.075 12.69 104.01 14.6171 105.118 16.6155L105.11 16.6071Z" fill="white"/>
<path d="M323.636 32.2299C323.906 31.1615 324.196 29.8921 324.55 28.6436C324.799 27.7764 325.035 26.8799 325.46 26.1006C325.987 25.137 326.656 23.9011 328.021 24.6594C329.411 25.4303 329.799 26.6997 328.817 28.166C326.471 26.9343 326.071 27.081 325.367 29.5863C324.938 31.128 324.643 32.7075 324.276 34.266C323.249 38.6063 320.612 41.7694 316.77 43.8725C314.108 45.3305 311.264 46.4616 308.505 47.7394C308.409 47.5551 308.316 47.3707 308.219 47.1864C310.557 45.741 312.933 44.3543 315.22 42.8377C317.372 41.4133 319.457 39.8883 321.526 38.3465C322.73 37.45 323.025 36.2392 322.427 34.819C321.972 33.7255 321.614 32.5943 321.163 31.5009C320.763 30.5289 320.414 29.6659 318.931 29.8376C318.337 29.9047 317.17 28.9076 317.065 28.2624C316.947 27.5627 317.579 26.4525 318.227 26.0084C318.64 25.7236 320.022 26.0755 320.355 26.5573C321.589 28.3588 322.57 30.3362 323.64 32.2299H323.636Z" fill="white"/>
<path d="M199.895 30.3656C200.616 27.9775 201.113 25.9414 201.858 24.0017C202.267 22.9376 203.017 21.6137 204.499 22.4013C205.936 23.1638 206.248 24.4667 205.203 25.9959C204.571 25.6063 204.002 25.2502 203.076 24.6762C202.553 25.8283 202.086 26.8547 201.627 27.8854C201.572 28.0111 201.53 28.1535 201.517 28.2876C200.536 38.5309 193.396 42.7037 184.175 45.4268C184.668 44.9618 184.845 44.7481 185.06 44.5973C185.346 44.4004 185.675 44.2622 185.969 44.0736C189.676 41.694 193.438 39.3856 197.056 36.8719C197.991 36.2225 199.188 34.8106 199.036 33.9643C198.657 31.8235 197.591 29.8 196.745 27.7555C196.686 27.6089 196.079 27.7597 195.826 27.6089C195.009 27.1145 193.876 26.6914 193.564 25.9498C193.345 25.4219 194.091 23.9766 194.697 23.7629C195.359 23.5325 196.652 24.0101 197.141 24.6092C198.042 25.7152 198.581 27.1187 199.226 28.4258C199.483 28.9453 199.609 29.5235 199.891 30.3614L199.895 30.3656Z" fill="white"/>
<path d="M157.877 28.2541C155.552 27.0014 155.182 27.1438 154.474 29.6953C154.044 31.2412 153.733 32.8206 153.37 34.3833C152.3 38.996 149.369 42.1716 145.3 44.3166C142.73 45.674 139.988 46.7172 137.326 47.8987C137.246 47.7437 137.161 47.5886 137.081 47.4336C139.651 45.8416 142.25 44.2999 144.773 42.6408C146.757 41.3337 148.648 39.8925 150.561 38.4848C151.879 37.5129 152.09 36.2476 151.475 34.7729C151.02 33.6795 150.649 32.5483 150.186 31.459C149.807 30.5709 149.512 29.7413 148.092 29.9592C147.503 30.0472 146.222 29.0249 146.18 28.4426C146.121 27.6424 146.778 26.5657 147.46 26.0378C147.802 25.7739 149.225 26.2305 149.575 26.7458C150.754 28.5012 151.669 30.4284 152.76 32.4226C153.05 31.2454 153.324 29.9885 153.669 28.7568C153.914 27.8896 154.133 26.9763 154.583 26.2096C155.118 25.3005 155.725 23.9472 157.123 24.7558C158.48 25.5393 158.981 26.7877 157.886 28.2541H157.877Z" fill="white"/>
<path d="M270.325 17.0597C274.874 14.148 279.419 11.2405 284.074 8.25754C283.569 7.64168 283.43 7.40288 283.227 7.2353C280.498 4.95202 281.037 1.68001 284.386 0.268144C285.831 -0.343524 286.753 0.0921847 286.863 1.67582C286.926 2.56399 286.673 3.46893 286.66 4.36548C286.652 4.93945 286.622 5.78992 286.959 6.04129C288.438 7.1557 287.903 8.12766 286.9 9.28816C286.319 9.00746 285.734 8.71838 285.047 8.38322C281.184 13.0713 276.079 15.6101 270.321 17.0555L270.325 17.0597Z" fill="white"/>
<path d="M242.124 37.1567C246.635 34.2701 251.142 31.3878 255.683 28.4802C255.291 27.8728 255.22 27.6633 255.072 27.546C252.254 25.2753 252.494 22.4348 255.67 20.6417C257.393 19.6697 258.573 20.2981 258.598 22.2798C258.611 23.1051 258.328 23.9346 258.295 24.7642C258.274 25.2627 258.307 26.021 258.615 26.2347C260.186 27.3156 259.546 28.3001 258.573 29.469C257.996 29.1841 257.406 28.8992 256.74 28.5724C252.878 33.1809 247.852 35.7532 242.115 37.1609L242.124 37.1567ZM256.467 25.1957C256.707 25.0616 256.943 24.9317 257.183 24.7977C256.921 24.119 256.782 23.3313 256.328 22.8202C256.163 22.6359 255.241 23.1219 254.205 23.4486C255.245 24.253 255.856 24.7223 256.467 25.1957Z" fill="white"/>
<path d="M118.168 43.0807C122.077 46.713 122.81 51.0534 121.559 55.7875C121.096 57.5429 120.999 58.7118 122.456 60.1614C124.68 62.3692 123.817 66.4666 121.188 67.648C118.981 68.6409 117.41 67.7234 117.721 65.3522C117.991 63.3161 118.703 61.3135 119.419 59.3653C120.489 56.4578 121.681 53.5587 120.392 50.4752C119.756 48.9586 118.863 47.4797 117.789 46.2354C116.748 45.033 116.871 44.2203 118.164 43.0765L118.168 43.0807ZM119.908 61.2381C119.659 61.2925 119.415 61.347 119.166 61.4014C119.137 62.6709 118.602 64.6609 119.183 65.0673C120.527 66.0057 121.795 64.841 122.915 63.4585C121.837 62.6625 120.872 61.9503 119.903 61.2381H119.908Z" fill="white"/>
<path d="M229.129 7.46985C233.295 10.5449 234.727 15.4634 233.206 20.6291C232.701 22.3426 232.734 23.4235 234.099 24.806C236.572 27.3072 235.228 31.8318 232.031 32.5063C230.308 32.8708 229.124 32.0706 229.352 30.3404C229.605 28.43 230.055 26.4651 230.86 24.7306C233.261 19.5608 233.375 14.8141 229.179 10.4193C228.762 9.98355 229.124 8.81468 229.124 7.47404L229.129 7.46985ZM231.361 25.7864C230.759 27.458 229.411 28.9788 231.087 29.934C232.372 30.6672 233.775 29.6701 234.529 28.0361C233.505 27.3072 232.57 26.6452 231.357 25.7864H231.361Z" fill="white"/>
<path d="M69.1707 6.73254C71.3779 8.41673 72.7216 10.633 72.8944 13.2514C73.0502 15.6352 72.7638 18.0903 72.351 20.4574C72.1488 21.6179 72.094 22.3845 73.0628 23.1764C74.9457 24.7139 75.2406 26.8673 74.3307 28.8615C73.8084 30.0011 72.4478 31.0233 71.2263 31.5135C69.8278 32.0749 68.7242 31.1741 68.8042 29.5737C68.8674 28.2708 69.1243 26.9511 69.495 25.6984C69.9247 24.2321 70.5397 22.8161 71.1252 21.4042C72.8859 17.1477 72.0856 13.3226 69.0232 10.0004C67.9112 8.79378 67.9786 7.91399 69.1791 6.74092L69.1707 6.73254ZM73.8969 27.9985C73.9053 27.6717 73.9137 27.3449 73.9222 27.0181C72.9575 26.3101 71.9929 25.6021 71.0283 24.8941C70.7671 24.9611 70.506 25.0281 70.249 25.0952C70.2237 26.352 70.1985 27.6089 70.1774 28.8657C71.42 28.5766 72.6585 28.2918 73.9011 28.0027L73.8969 27.9985Z" fill="white"/>
<path d="M152.288 87.0831C152.911 86.0567 153.438 85.1853 153.956 84.3264C159.411 86.9826 159.036 87.2675 156.298 91.0757C154.992 90.2504 153.665 89.4125 152.246 88.5159C151.61 89.5214 151.024 90.4389 150.363 91.4821C148.888 90.4724 147.524 89.5382 145.978 88.4782C146.652 87.1124 147.279 85.8472 148.004 84.3725C149.558 85.357 150.881 86.1949 152.284 87.0831H152.288Z" fill="white"/>
<path d="M218.046 70.2874C217.263 65.3898 216.416 60.4965 215.725 55.5864C215.371 53.0811 216.867 51.5938 219.339 50.8606C219.188 50.6302 219.036 50.3956 218.884 50.1652C218.118 50.4124 217.355 50.6553 215.915 51.1204C216.787 49.6247 217.301 47.6934 218.151 47.5383C219.28 47.3289 220.839 48.3008 221.879 49.1639C222.456 49.6415 222.595 50.9612 222.469 51.8326C222.393 52.3647 221.488 52.8884 220.852 53.1984C220.047 53.5922 219.137 53.7807 218.265 54.0279C216.74 54.4594 216.538 55.2722 216.841 56.8432C217.553 60.5133 217.932 64.2503 218.379 67.9664C218.472 68.7373 218.269 69.5375 218.202 70.3251C218.147 70.3125 218.097 70.2999 218.042 70.2874H218.046Z" fill="white"/>
<path d="M171.833 92.9567C172.511 92.2194 173.05 91.1217 173.888 90.7991C181.391 87.9293 188.947 85.1936 196.492 82.4285C196.605 82.3866 196.757 82.4411 197.486 82.4913C196.639 83.3586 196.155 84.2426 195.43 84.5274C187.768 87.5565 180.068 90.4933 172.376 93.4553C172.195 93.2877 172.01 93.1243 171.829 92.9567H171.833Z" fill="white"/>
<path d="M177.894 18.7732C175.102 21.3707 171.98 22.2379 168.493 21.6556C166.753 21.3665 165.894 19.7242 166.648 17.8934C167.267 16.3977 168.396 15.0906 169.39 13.7709C170.051 12.8953 170.872 12.1412 171.534 10.6958C170.034 10.5534 168.535 10.4151 166.458 10.2182C167.444 9.42221 168.189 8.33713 169.036 8.24496C170.401 8.10252 171.867 8.52985 173.21 8.96556C173.387 9.02421 173.387 10.7461 172.962 11.3243C171.761 12.9414 170.224 14.303 168.96 15.8782C168.354 16.6365 168.059 17.6462 167.625 18.5428C168.619 18.9198 169.626 19.6446 170.607 19.6111C172.949 19.5315 175.279 19.0958 177.89 18.7732H177.894Z" fill="white"/>
<path d="M17.835 24.7097C18.4794 24.0226 18.9976 23.0046 19.7895 22.6987C27.0346 19.9085 34.3304 17.2398 41.6177 14.5543C41.9799 14.4203 42.4138 14.4747 43.45 14.3826C42.5949 15.2959 42.22 16.0374 41.6429 16.2637C33.9007 19.2927 26.129 22.2547 18.3615 25.2292C18.1846 25.0532 18.0119 24.8815 17.835 24.7055V24.7097Z" fill="white"/>
<path d="M304.55 11.4457C303.068 11.3451 301.585 11.2404 299.508 11.0979C300.494 10.281 301.201 9.20847 302.027 9.1163C303.405 8.9571 304.887 9.32159 306.239 9.73216C306.421 9.78662 306.446 11.6216 305.995 12.2375C304.765 13.9133 303.173 15.321 301.863 16.9465C301.311 17.6336 301.113 18.6055 300.755 19.4476C301.623 19.8079 302.499 20.4992 303.35 20.4615C305.776 20.3609 308.194 19.9671 310.494 19.7032C309.078 21.9739 303.442 23.5869 300.957 22.2672C299.192 21.3329 299.196 19.7158 299.925 18.2955C300.704 16.7747 301.909 15.4592 302.975 14.0893C303.522 13.3896 304.171 12.7696 304.774 12.116L304.55 11.4457Z" fill="white"/>
<path d="M189.853 11.8772C190.683 11.1231 191.391 10.0422 192.368 9.66935C199.68 6.87076 207.043 4.20623 214.398 1.51238C214.579 1.44535 214.798 1.48305 215.687 1.42859C214.735 2.39218 214.247 3.28873 213.514 3.57362C205.835 6.58168 198.118 9.49339 190.409 12.4302C190.224 12.2459 190.038 12.0616 189.853 11.8772Z" fill="white"/>
<path d="M139.79 83.6142C139.259 84.1547 138.83 84.9465 138.185 85.1979C130.46 88.2227 122.705 91.1721 114.516 93.8241C115.06 93.0825 115.447 91.943 116.172 91.6665C123.851 88.7254 131.58 85.9226 139.297 83.0822C139.461 83.2581 139.626 83.4383 139.79 83.6142Z" fill="white"/>
<path d="M264.718 74.2757C265.034 73.044 265.363 71.6363 265.755 70.2454C265.961 69.5123 266.159 68.733 266.568 68.1088C267.145 67.2248 267.743 65.8716 269.137 66.7095C270.481 67.5222 270.965 68.7665 269.857 70.2203C267.617 68.9634 267.124 69.152 266.45 71.6196C265.974 73.3666 265.611 75.1472 265.157 76.9026C264.992 77.5352 264.702 78.1343 264.31 79.1565C263.501 76.9654 262.903 75.2268 262.212 73.5258C261.837 72.6041 261.589 71.5777 260.018 71.9129C259.491 72.026 258.185 70.9283 258.16 70.346C258.126 69.5374 258.821 68.5361 259.495 67.937C259.765 67.6982 261.117 68.113 261.437 68.5906C262.65 70.4004 263.64 72.3611 264.723 74.2715L264.718 74.2757Z" fill="white"/>
<path d="M277.318 38.4722C277.907 40.0684 278.409 41.2792 278.796 42.5235C279.019 43.2399 279.34 44.1197 279.112 44.7439C278.687 45.9128 278.084 47.1948 277.158 47.9195C276.778 48.217 275.355 47.1864 274.803 46.9392C273.514 47.5383 272.166 48.7449 271.104 48.5312C269.175 48.1416 269.495 46.0804 269.377 44.5051C269.331 43.8976 269.339 43.2022 269.049 42.7078C268.19 41.2373 269.078 40.6172 270.561 39.6159C270.489 41.1577 270.388 42.2888 270.405 43.42C270.426 44.6601 270.363 46.2856 272.078 46.2228C273.666 46.1641 274.142 44.7732 273.981 43.2692C273.834 41.8908 273.678 40.5125 273.531 39.13C273.813 39.0839 274.099 39.042 274.382 38.9959C274.655 40.2779 274.912 41.5683 275.207 42.8461C275.376 43.5792 275.431 44.4464 275.873 44.9785C276.206 45.3807 277.065 45.3514 277.693 45.5106C277.739 44.9701 277.962 44.3752 277.802 43.9018C277.242 42.2428 276.071 40.6843 277.322 38.468L277.318 38.4722Z" fill="white"/>
<path d="M131.883 14.68C130.333 14.5752 128.808 14.4705 127.321 14.3657C128.05 12.1621 132.073 11.0854 133.496 12.9204C133.876 13.4105 133.745 14.7428 133.332 15.3126C132.144 16.9339 130.615 18.2997 129.377 19.8875C128.749 20.6919 128.459 21.7518 128.012 22.6945C129.023 23.038 130.042 23.679 131.045 23.6623C133.231 23.6287 135.409 23.2559 137.894 22.9919C135.291 25.3381 132.443 26.1885 129.284 25.8073C127.245 25.5643 126.327 24.1734 126.951 22.1917C127.372 20.8553 128.282 19.6361 129.124 18.4715C129.895 17.4073 130.881 16.494 131.757 15.5053C131.833 15.4215 131.803 15.2455 131.883 14.68Z" fill="white"/>
<path d="M84.6593 51.9332C85.2026 50.0982 85.6913 48.0663 86.4284 46.1265C86.8286 45.0791 87.5236 43.6882 89.0232 44.4339C90.4638 45.1504 90.7882 46.4617 89.8783 47.9322C87.4015 46.7591 87.1487 46.8471 86.3863 49.5452C85.7334 51.8536 85.1942 54.1955 84.1327 56.4662C83.463 54.6982 82.8269 52.9135 82.1108 51.1665C81.757 50.3035 81.5211 49.3734 80.0468 49.6666C79.4992 49.7756 78.206 48.7408 78.1639 48.1626C78.1049 47.3624 78.7578 46.3444 79.4023 45.7285C79.6592 45.4855 81.0325 45.8542 81.3484 46.315C82.5742 48.1165 83.5851 50.0646 84.6593 51.9332Z" fill="white"/>
<path d="M29.6169 25.0951C29.5537 26.2556 29.4147 27.4203 29.4442 28.5808C29.4737 29.7538 29.4695 31.283 31.0786 31.2411C32.5402 31.1992 33.1468 29.9465 33.0289 28.5137C32.9657 27.7554 32.6877 27.0097 32.6498 26.2556C32.6119 25.5057 32.7509 24.7516 32.814 23.9974C33.0457 23.9849 33.2774 23.9723 33.5049 23.9597C33.7618 25.3632 33.9724 26.7793 34.2968 28.1702C34.4653 28.8866 34.6801 29.691 35.1519 30.2063C35.4467 30.5289 36.2597 30.3739 36.841 30.4367C36.8621 29.9424 37.0432 29.3893 36.8789 28.9704C36.2429 27.3155 35.135 25.7487 36.4029 23.3564C37.0937 25.5517 38.0078 27.3239 38.0921 29.1338C38.151 30.3739 37.2454 31.836 36.3566 32.8331C36.0912 33.1348 34.4358 32.2131 33.2184 31.7815C33.2184 31.7815 33.0752 32.2466 32.7593 32.4435C31.9842 32.9295 31.028 33.738 30.333 33.583C29.6253 33.428 28.884 32.3555 28.6144 31.5386C28.13 30.0722 27.8393 28.497 27.7719 26.9552C27.7424 26.2514 28.4374 25.514 28.8081 24.7934C29.0735 24.894 29.3431 24.9987 29.6085 25.0993L29.6169 25.0951Z" fill="white"/>
<path d="M38.6524 65.9302C36.5378 64.5728 36.0829 64.6734 35.4131 66.8561C34.6802 69.2358 34.1241 71.6699 32.9952 74.104C32.3297 72.4198 31.6768 70.7272 30.9902 69.0514C30.6237 68.1507 30.3331 67.3337 28.9177 67.5181C28.3069 67.5977 27.0348 66.609 26.9843 66.0308C26.9211 65.239 27.5656 64.1581 28.2438 63.6302C28.5892 63.3621 30.0129 63.8062 30.3583 64.3173C31.542 66.0769 32.4645 68.0082 33.5681 70.0234C33.8377 68.9383 34.0989 67.7611 34.4232 66.6006C34.6844 65.6621 34.8908 64.6776 35.3457 63.8355C35.8933 62.8216 36.5968 61.5019 38.0711 62.4194C39.3558 63.2196 39.6675 64.4555 38.6524 65.9302Z" fill="white"/>
<path d="M19.558 19.3178C18.9346 17.642 18.3449 15.9495 17.6751 14.2904C17.296 13.352 17.0054 12.3884 15.4763 12.602C14.895 12.6816 13.7156 11.6929 13.606 11.0561C13.4839 10.3523 14.0947 9.24206 14.7307 8.78959C15.1393 8.50051 16.5294 8.83986 16.8664 9.31747C18.0795 11.0519 19.0315 12.9665 20.1772 14.9733C20.4595 13.9092 20.7417 12.7654 21.066 11.6343C21.3356 10.7 21.5378 9.71966 21.9885 8.87338C22.4982 7.90979 23.1975 6.66132 24.5496 7.428C25.9228 8.20725 26.3188 9.49343 25.3121 10.9472C22.9363 9.66939 22.5993 9.80764 21.8327 12.5601C21.205 14.8183 20.6785 17.1016 20.1056 19.3723C19.9245 19.3513 19.7434 19.3346 19.5622 19.3136L19.558 19.3178Z" fill="white"/>
<path d="M149.449 71.9254C148.728 70.0443 148.084 68.1255 147.233 66.3073C147.001 65.8087 146.138 65.6076 145.59 65.239C144.832 64.7278 143.594 64.267 143.488 63.6344C143.366 62.8887 144.07 61.7784 144.748 61.2296C145.064 60.974 146.492 61.4516 146.841 61.9753C148.021 63.7391 148.943 65.6747 150.038 67.6815C150.325 66.5084 150.603 65.2851 150.923 64.0743C151.138 63.2699 151.209 62.3021 151.715 61.724C152.397 60.9405 153.686 59.7717 154.259 59.9811C155.683 60.509 156.184 61.8874 155.224 63.3998C152.696 62.3021 152.406 62.4194 151.652 65.1761C151.037 67.4301 150.523 69.7134 149.967 71.9841C149.794 71.9673 149.621 71.9464 149.449 71.9296V71.9254Z" fill="white"/>
<path d="M251.058 20.6752C250.266 18.5511 249.643 16.7874 248.948 15.0529C248.585 14.1563 248.232 13.3645 246.846 13.5028C246.227 13.5656 244.98 12.5685 244.942 11.9987C244.891 11.1944 245.54 10.126 246.218 9.59397C246.551 9.33422 247.97 9.81182 248.324 10.3397C249.504 12.0993 250.422 14.0265 251.5 16.0039C251.816 14.7303 252.124 13.419 252.473 12.1202C252.671 11.3829 252.831 10.6036 253.202 9.95008C253.771 8.95716 254.365 7.5453 255.864 8.33293C257.187 9.02839 257.591 10.2769 256.749 11.7013C254.066 10.8005 253.767 10.9556 252.996 13.9008C252.608 15.3839 252.364 16.9047 251.981 18.3877C251.799 19.0832 251.437 19.7326 251.05 20.6668L251.058 20.6752Z" fill="white"/>
<path d="M7.54435 55.0333C6.8409 53.0265 6.41124 51.5769 5.82152 50.1986C5.29077 48.9501 5.07173 47.3246 2.91502 47.6933C2.46009 47.7687 1.34804 46.6375 1.34383 46.0552C1.33541 45.2969 1.97568 44.3165 2.63701 43.8473C3.0077 43.5834 4.24611 43.9269 4.62943 44.3836C5.5056 45.4267 6.1585 46.6794 6.78193 47.9027C7.14418 48.6108 7.27898 49.4319 7.92346 50.2279C8.30257 48.8119 8.66483 47.3874 9.06079 45.9756C9.24613 45.3094 9.4062 44.6182 9.72212 44.0107C10.2487 43.0094 10.9395 41.8489 12.279 42.5318C13.6227 43.2189 14.0103 44.438 13.1172 45.8457C10.6446 44.681 10.4551 44.7187 9.66736 47.3162C9.16188 48.9753 8.90072 50.7013 8.47528 52.3855C8.29415 53.1061 7.98243 53.7932 7.53593 55.0291L7.54435 55.0333Z" fill="white"/>
<path d="M182.309 49.5619C185.717 51.8536 187.229 56.7637 186.024 61.7953C185.67 63.2783 185.076 64.7028 184.613 66.1607C184.36 66.9567 183.96 67.7779 183.994 68.5697C184.032 69.5375 184.457 70.4885 184.714 71.4479C185.485 71.1881 186.256 70.9326 186.947 70.7021C186.808 72.181 186.517 74.2549 184.466 74.0831C182.532 73.9197 182.739 71.737 182.911 70.3C183.143 68.3895 183.602 66.454 184.289 64.6567C186.028 60.1027 185.422 56.0347 182.065 52.4778C180.931 51.2796 181.302 50.4584 182.305 49.5619H182.309Z" fill="white"/>
<path d="M49.7392 49.4362C53.7156 52.9009 54.2 57.1784 53.3575 61.7617C53.0585 63.3914 52.3508 64.9415 51.858 66.5377C51.6137 67.3337 51.2135 68.1633 51.2725 68.9509C51.3399 69.8433 51.8453 70.7021 52.1613 71.5735C52.8773 71.2803 53.5977 70.9828 54.3348 70.6812C54.3011 70.6141 54.4233 70.744 54.398 70.8236C53.9178 72.2899 53.8293 74.4852 51.7021 74.1124C49.7897 73.7772 50.0762 71.6741 50.2531 70.2329C50.4763 68.3895 50.9313 66.5252 51.601 64.7907C53.3491 60.2535 52.8352 56.1603 49.4527 52.5992C48.3281 51.4136 48.6145 50.5757 49.7434 49.4362H49.7392Z" fill="white"/>
<path d="M68.0962 59.3318C65.4087 66.2319 61.9673 72.7131 66.3144 79.9777C65.4803 80.5181 64.6842 81.0293 63.9049 81.5362C60.6362 78.1469 63.1762 63.9696 68.0962 59.336V59.3318Z" fill="white"/>
<path d="M333 42.5487C332.423 43.0556 331.93 43.7762 331.26 44.0401C324.559 46.6712 317.827 49.2309 311.1 51.7991C310.999 51.8368 310.856 51.7656 310.254 51.665C310.898 50.8649 311.277 49.8971 311.934 49.6499C318.779 47.0482 325.671 44.5596 332.549 42.0417C332.701 42.2135 332.853 42.3811 333 42.5529V42.5487Z" fill="white"/>
<path d="M206.332 34.5928C204.878 36.8258 205.953 38.1999 207.385 39.8716C209.533 42.3769 207.873 46.7717 204.794 47.111C204.028 47.1948 202.701 46.5077 202.414 45.8416C201.488 43.6756 204.023 36.2853 206.332 34.5928ZM204.626 40.5377C204.322 40.6047 204.019 40.6676 203.72 40.7346C203.674 41.9537 203.627 43.1771 203.581 44.3962L207.33 43.6547C207.359 43.3698 207.385 43.0849 207.414 42.8C206.483 42.0459 205.557 41.2918 204.626 40.5377Z" fill="white"/>
<path d="M121.588 81.1381C124.697 79.1607 128.248 80.6857 131.521 80.0195C131.597 80.1913 131.673 80.3631 131.748 80.5348C131.007 80.9747 130.27 81.4146 129.491 81.8797C129.743 85.1182 128.673 86.3206 124.903 86.5845C124.061 86.6431 123.172 86.0776 122.309 85.7969C122.658 84.9841 123.008 84.1755 123.332 83.4256C123.871 83.5555 124.015 83.5597 124.128 83.6225C124.95 84.0917 125.75 84.6029 126.601 85.005C126.673 85.0386 127.351 84.1001 127.296 84.0415C126.576 83.2874 125.881 82.3447 124.962 81.9928C123.981 81.6157 122.78 81.8168 121.673 81.7624C121.643 81.5529 121.618 81.3434 121.588 81.1339V81.1381Z" fill="white"/>
<path d="M203.973 12.6104C206.256 15.2288 208.013 12.3967 210.001 11.8814C209.98 13.729 207.208 16.0667 201.778 18.66C202.511 17.3738 202.983 16.5485 203.455 15.7232C203.299 15.7651 203.143 15.8028 202.987 15.8447C202.743 14.7847 201.947 13.3519 202.364 12.7319C203.392 11.2069 204.807 9.74894 206.399 8.8482C207.558 8.19463 208.093 9.56041 207.381 11.2278C206.092 11.408 204.988 11.5588 203.884 11.7138C203.914 12.0113 203.943 12.3129 203.973 12.6104Z" fill="white"/>
<path d="M280.081 22.3594C280.548 21.5759 281.016 20.7925 281.222 20.4531C280.814 19.1041 279.891 17.6503 280.283 17.0429C281.286 15.4886 282.701 14.0139 284.293 13.0838C285.498 12.3799 286.075 13.6536 285.447 15.409C284.137 15.6519 282.983 15.8614 281.412 16.1505C284.205 19.5817 286.045 16.6155 288.661 16.0081C286.736 19.7786 283.046 20.5327 280.633 22.7909C280.447 22.6442 280.266 22.4976 280.081 22.351V22.3594Z" fill="white"/>
<path d="M253.101 36.4948C258.025 38.8702 258.147 39.2263 255.502 43.0765C250.843 41.363 250.414 40.2276 253.101 36.4948Z" fill="white"/>
<path d="M37.633 11.7641C37.6077 13.3226 36.3777 14.4747 34.7939 14.4286C33.2101 14.3826 32.0517 13.1718 32.098 11.6049C32.1444 10.0632 33.4038 8.87336 34.9455 8.91526C36.4915 8.95715 37.6541 10.1931 37.6288 11.7641H37.633Z" fill="white"/>
<path d="M320.481 9.70703C324.816 12.5852 326.522 18.3626 324.171 22.9459C324.137 22.2462 324.066 21.8943 324.112 21.555C324.618 17.9478 322.983 15.1869 320.494 12.845C319.34 11.7557 319.078 10.8591 320.481 9.70703Z" fill="white"/>
<path d="M313.105 9.39285C314.643 9.36352 315.923 10.591 315.957 12.116C315.991 13.6536 314.773 14.8853 313.198 14.9104C311.614 14.9356 310.367 13.7583 310.338 12.2082C310.308 10.7042 311.572 9.41799 313.105 9.39285Z" fill="white"/>
<path d="M279.681 35.1667C280.363 33.8052 280.97 32.586 281.585 31.3627C287.254 34.4503 286.791 33.8554 284.04 38.0994C282.633 37.1526 281.231 36.2099 279.681 35.1667Z" fill="white"/>
<path d="M104.588 61.3846C109.432 64.1413 111.361 70.4801 108.838 74.59C109.731 70.1198 107.532 66.9944 104.642 64.0785C104.234 63.6679 104.588 62.5116 104.588 61.3846Z" fill="white"/>
<path d="M64.9749 22.5269C65.9564 17.9394 64.2799 14.8434 61.4998 12.2417C60.2866 11.1063 60.2571 10.2265 61.4829 9.2085C65.8174 11.6342 67.8351 18.5134 64.9749 22.5311V22.5269Z" fill="white"/>
<path d="M182.637 38.4303C183.375 34.245 181.605 31.0945 178.741 28.342C177.625 27.2695 177.663 27.2318 178.83 25.6272C183.05 27.4706 185.161 34.3121 182.637 38.4303Z" fill="white"/>
<path d="M156.883 56.2986C157.747 51.7865 155.557 48.5899 152.587 45.6447C152.216 45.276 152.6 44.1533 152.642 43.219C157.246 45.23 159.272 51.7949 156.883 56.2986Z" fill="white"/>
<path d="M138.539 27.148C142.848 30.2985 144.571 36.2476 141.833 40.5251C142.873 35.6736 140.851 32.5776 138.025 29.7245C137.557 29.2511 137.818 28.0655 137.738 27.2066C138.004 27.1857 138.273 27.1647 138.539 27.1438V27.148Z" fill="white"/>
<path d="M90.9353 8.83569C95.1813 11.3368 97.0432 17.4912 94.5284 22.2212C94.5284 20.3862 94.9244 18.9115 94.4442 17.8138C93.5175 15.7023 92.2243 13.7165 90.8384 11.8563C89.7096 10.3439 89.5537 10.4612 90.9353 8.83569Z" fill="white"/>
<path d="M117.309 8.44181C122.182 11.6049 124.048 17.9059 121.235 22.1876C122.309 17.2817 120.236 14.1731 117.368 11.2991C116.934 10.8633 117.309 9.63582 117.309 8.43762V8.44181Z" fill="white"/>
<path d="M305.485 41.6227C306.479 37.0478 304.698 33.7967 301.682 31.0735C300.435 29.9466 301.142 29.1589 301.93 28.2959C306.336 30.8724 308.316 37.6678 305.481 41.6227H305.485Z" fill="white"/>
<path d="M83.008 26.1425C87.3341 28.2791 89.3349 34.8315 86.6348 39.3604C87.5447 34.6555 85.7376 31.4422 82.7806 28.719C81.6601 27.6884 82.2161 26.9343 83.008 26.1425Z" fill="white"/>
<path d="M3.77025 9.25879C8.84187 11.9778 10.6953 18.2914 7.88989 22.5102C8.92191 17.6504 6.89157 14.5082 4.00193 11.6384C3.56385 11.2027 3.82922 10.0674 3.77025 9.25879Z" fill="white"/>
<path d="M274.398 33.625C275.106 29.5193 273.286 26.4107 270.46 23.7713C269.222 22.615 269.672 21.7938 270.591 20.8638C274.891 23.4822 276.724 29.3475 274.398 33.625Z" fill="white"/>
<path d="M61.7865 43.3782C66.7317 46.5915 68.5093 52.8129 65.805 57.2287C66.8033 52.3563 64.8067 49.1262 61.8412 46.2019C61.4284 45.7955 61.7823 44.6183 61.7823 43.3782H61.7865Z" fill="white"/>
<path d="M302.124 72.9016C303.076 68.3853 301.429 65.2809 298.64 62.6834C297.435 61.5606 297.368 60.6724 298.607 59.646C302.831 61.393 304.917 69.3824 302.124 72.9016Z" fill="white"/>
<path d="M156.905 6.92102C161.808 9.75313 163.674 15.962 161.214 20.2395C162.06 15.7483 159.929 12.5475 156.959 9.61487C156.555 9.21268 156.905 8.06057 156.905 6.92102Z" fill="white"/>
<path d="M218.691 22.2965C219.327 18.0567 217.406 14.923 214.558 12.0741C214.074 11.5881 214.259 10.4444 214.078 9.22107C218.855 11.341 220.902 17.5959 218.691 22.2965Z" fill="white"/>
<path d="M27.0728 49.8928C27.4729 49.189 27.7762 48.6485 28.0753 48.1165C32.3803 49.9724 34.5707 57.0066 31.7737 61.4936C32.9068 56.2315 30.4089 52.9637 27.0728 49.8886V49.8928Z" fill="white"/>
<path d="M231.964 39.1257C235.708 41.7358 237.558 46.1851 236.294 49.6875C236.05 49.3775 235.734 49.1596 235.704 48.9082C235.359 46.2018 233.922 44.0819 231.985 42.3014C230.809 41.2247 230.607 40.303 231.964 39.1257Z" fill="white"/>
<path d="M87.1107 17.8724C87.0433 17.7677 87.1275 17.8389 87.1107 17.885C86.6431 19.368 86.5378 21.534 84.4653 21.2952C82.3128 21.048 82.6035 18.8527 82.8394 17.3697C83.2353 14.8685 84.0146 12.4218 84.6296 9.95422C84.8529 10.0087 85.0803 10.059 85.3036 10.1134C84.9961 11.2488 84.6717 12.3841 84.3895 13.5279C84.1915 14.3365 83.8798 15.1785 83.943 15.9745C84.0146 16.8837 84.4527 17.7593 84.7307 18.6516C85.5058 18.3961 86.2808 18.1447 87.1065 17.8724H87.1107Z" fill="white"/>
<path d="M209.019 66.7137C208.678 67.9664 208.299 69.2107 208.012 70.4759C207.827 71.2803 207.608 72.135 207.713 72.931C207.81 73.6767 208.143 74.5691 208.691 75.0132C208.96 75.231 209.942 74.5733 210.839 74.213C210.649 74.8581 210.628 75.6542 210.224 76.1318C209.659 76.7979 208.813 77.2252 208.088 77.7531C207.583 77.0074 206.728 76.3035 206.631 75.5117C206.256 72.3319 207.166 69.3866 209.023 66.7179L209.019 66.7137Z" fill="white"/>
<path d="M7.13978 75.763C6.7017 77.7823 6.14567 79.7891 5.88872 81.8294C5.79184 82.6003 6.22992 83.6057 6.76488 84.1965C6.96707 84.4185 8.1381 83.7775 8.87104 83.5303C8.87104 83.5345 8.98477 83.7608 8.9258 83.9242C8.45402 85.2606 8.25604 87.1585 6.35629 86.9155C4.38914 86.6683 4.56185 84.716 4.76825 83.3669C5.16421 80.7401 5.90136 78.1594 6.49951 75.5619C6.71434 75.6289 6.92916 75.696 7.14399 75.7588L7.13978 75.763Z" fill="white"/>
<path d="M312.857 25.0532C312.415 27.0725 311.859 29.0793 311.585 31.1196C311.479 31.9114 311.787 33.0342 312.339 33.5327C312.667 33.8302 313.838 33.2018 314.542 33.0132C314.428 34.4419 314.137 36.5157 312.065 36.3188C310.005 36.1218 310.178 33.9014 310.443 32.389C310.881 29.8627 311.673 27.3951 312.313 24.9023C312.495 24.9526 312.676 25.0029 312.857 25.0532Z" fill="white"/>
<path d="M135.131 37.5714C135.072 37.4918 135.16 37.5631 135.148 37.6008C134.634 39.1174 134.604 41.4174 132.351 41.0529C130.291 40.7178 130.598 38.5392 130.83 37.0436C131.176 34.7645 131.909 32.544 132.473 30.2985C132.7 30.3571 132.924 30.4158 133.151 30.4744C132.89 31.4548 132.608 32.4267 132.372 33.4155C132.195 34.157 131.883 34.9321 131.967 35.6568C132.077 36.6288 132.511 37.5631 132.802 38.5099C133.564 38.2041 134.331 37.894 135.135 37.5714H135.131Z" fill="white"/>
<path d="M78.6987 30.8012C78.2943 32.6907 77.7509 34.5634 77.5487 36.4696C77.4603 37.3201 78.05 38.2418 78.3322 39.1299C79.0947 38.8325 79.8613 38.535 80.6658 38.2208C80.5858 38.0909 80.6658 38.158 80.6532 38.2082C80.3289 39.7709 80.1309 41.8615 78.1511 41.7526C75.9312 41.6311 76.2176 39.3981 76.4367 37.9192C76.7989 35.4851 77.5572 33.1054 78.1469 30.7048L78.7029 30.8054L78.6987 30.8012Z" fill="white"/>
<path d="M190.443 25.6314C190.435 25.5936 190.523 25.7403 190.489 25.8534C190.106 27.2443 189.895 29.0751 188.038 28.9536C186.024 28.8238 186.125 26.8798 186.323 25.5266C186.707 22.8998 187.423 20.3191 188.004 17.7216C188.261 17.776 188.518 17.8347 188.779 17.8891C188.649 18.3961 188.522 18.9072 188.383 19.4141C188.223 20.0174 188.021 20.6123 187.895 21.2198C187.709 22.0996 187.41 22.9961 187.469 23.8676C187.528 24.6971 187.81 25.6607 188.349 26.2388C188.573 26.4776 189.718 25.8618 190.443 25.6314Z" fill="white"/>
<path d="M246.395 73.9615C245.932 75.9725 245.329 77.9667 245.068 80.0028C244.963 80.8281 245.595 81.7498 245.89 82.6296C246.61 82.3699 247.334 82.1143 248.109 81.8336C248.05 81.7331 248.181 81.8546 248.16 81.93C247.756 83.4424 247.604 85.5455 245.51 85.269C243.493 85.0009 243.762 82.8894 243.986 81.4817C244.398 78.8926 245.173 76.3621 245.797 73.8065C245.995 73.8568 246.197 73.9113 246.395 73.9615Z" fill="white"/>
<path d="M227.368 22.527C226.833 24.0771 226.9 26.3394 224.634 26.0504C222.511 25.778 222.831 23.5995 223.05 22.1206C223.4 19.7661 224.133 17.466 224.702 15.1409C224.929 15.1911 225.157 15.2456 225.388 15.2959C225.102 16.4061 224.782 17.5121 224.537 18.6307C224.36 19.4393 224.12 20.2898 224.209 21.0858C224.301 21.9069 224.761 22.6904 225.06 23.4906C225.763 23.1973 226.467 22.8998 227.368 22.5228V22.527Z" fill="white"/>
<path d="M161.395 30.8892C161.058 32.0832 160.696 33.2688 160.401 34.4712C160.203 35.2798 159.933 36.1302 160.009 36.9346C160.093 37.7725 160.384 38.7361 160.936 39.3143C161.155 39.5447 162.309 38.8995 163.147 38.6146C163.008 39.109 163.012 39.8296 162.654 40.2401C162.031 40.9524 161.184 41.4719 160.43 42.0751C159.916 41.2624 159.086 40.5041 158.943 39.6327C158.514 37.031 159.491 33.5872 161.399 30.8975L161.395 30.8892Z" fill="white"/>
<path d="M240.927 10.9555C240.418 13.6368 239.921 15.7231 239.685 17.8347C239.605 18.5385 240.03 19.5021 240.561 19.9755C240.826 20.2143 241.846 19.6236 242.713 19.3471C242.507 20.0132 242.448 20.8595 242.014 21.4209C241.563 22.0032 240.696 22.7071 240.114 22.6233C239.533 22.5437 238.733 21.6052 238.636 20.9558C238.135 17.5623 239.078 14.4412 240.927 10.9513V10.9555Z" fill="white"/>
<path d="M245.515 42.8083C245.22 43.9102 244.895 45.0036 244.639 46.118C244.453 46.9266 244.184 47.7729 244.268 48.5689C244.352 49.3984 244.815 50.1902 245.115 50.9988C245.831 50.7307 246.547 50.4626 247.288 50.1819C247.288 50.1819 247.402 50.3913 247.351 50.538C246.863 51.9331 246.686 53.9357 244.651 53.5963C242.751 53.2779 242.975 51.3298 243.173 49.964C243.535 47.4922 244.217 45.0707 244.765 42.6282C245.013 42.691 245.266 42.7539 245.515 42.8125V42.8083Z" fill="white"/>
<path d="M82.8311 75.1849C82.5363 77.5478 81.5085 79.0895 80.2237 78.6664C78.1892 78.0003 78.4377 76.115 78.6694 74.6235C79.0316 72.3025 79.7688 70.036 80.3501 67.7485C80.5481 67.7988 80.746 67.8533 80.9482 67.9035C80.5649 69.6464 80.0299 71.3725 79.8614 73.1362C79.773 74.0579 80.3332 75.0425 80.6028 75.9977C81.3821 75.717 82.1572 75.4321 82.8353 75.1849H82.8311Z" fill="white"/>
<path d="M7.70425 36.7336C7.21983 38.1789 7.22826 40.3282 5.09262 40.1187C3.00331 39.9134 3.29817 37.7809 3.50036 36.3691C3.85841 33.8638 4.59135 31.4129 5.16423 28.9369L5.88874 29.1087C5.58546 30.2398 5.24847 31.3626 4.99152 32.5022C4.79354 33.382 4.53659 34.2953 4.59135 35.1751C4.6419 35.9459 4.89043 36.9598 5.43381 37.3494C5.8045 37.6176 6.82388 36.9975 7.70004 36.7294L7.70425 36.7336Z" fill="white"/>
<path d="M27.2791 40.3492C26.7694 41.8909 26.7357 44.0485 24.6506 43.8516C22.4729 43.6463 22.7467 41.4468 22.9784 39.9553C23.3533 37.517 24.1115 35.1416 24.7054 32.7368C24.916 32.7913 25.1308 32.8416 25.3415 32.896C25.0298 34.1068 24.6886 35.3134 24.4148 36.5367C24.2505 37.2824 24.0356 38.0701 24.1283 38.8032C24.2336 39.6369 24.6549 40.4329 24.9413 41.2499C25.6532 40.9776 26.3608 40.7053 27.2791 40.3492Z" fill="white"/>
<path d="M52.3214 40.8519C51.8159 42.3895 51.799 44.6392 49.5876 44.3627C47.473 44.0988 47.8016 41.8825 48.0459 40.3911C48.4545 37.8857 49.2211 35.4391 49.8403 32.9714C50.0551 33.0259 50.2742 33.0804 50.489 33.1306C50.1478 34.3791 49.7729 35.615 49.4738 36.8719C49.2801 37.6846 49.0273 38.5393 49.1158 39.3437C49.2085 40.1774 49.6802 40.9734 49.9835 41.782C50.6954 41.4971 51.4115 41.2122 52.3171 40.8519H52.3214Z" fill="white"/>
<path d="M152.515 18.5763C151.917 20.051 151.959 22.3971 149.752 22.0787C147.583 21.7645 147.928 19.4854 148.168 17.9353C148.522 15.652 149.28 13.4316 150.354 11.3075C149.988 13.1383 149.486 14.9607 149.314 16.8083C149.234 17.6588 149.802 18.5679 150.076 19.4519C150.851 19.1754 151.626 18.8947 152.511 18.5805L152.515 18.5763Z" fill="white"/>
<path d="M267.233 32.9966C266.707 34.5257 266.698 36.6498 264.571 36.4613C262.427 36.2728 262.777 34.1487 262.979 32.7494C263.345 30.2147 264.078 27.7345 264.659 25.2334C264.904 25.2921 265.148 25.3465 265.392 25.4052C265.064 26.595 264.706 27.7806 264.415 28.983C264.217 29.7958 263.931 30.6462 264.011 31.4423C264.099 32.276 264.584 33.072 264.895 33.8847C265.62 33.6082 266.344 33.3359 267.233 32.9966Z" fill="white"/>
<path d="M295.759 17.9394C295.658 18.2578 295.574 18.5176 295.498 18.7773C295.102 20.1222 294.794 21.7477 292.912 21.4167C291.151 21.1067 291.265 19.3974 291.45 18.195C291.863 15.5011 292.579 12.8576 293.173 10.1888C293.417 10.2433 293.666 10.302 293.91 10.3564C293.586 11.5462 293.227 12.7277 292.945 13.9301C292.756 14.7386 292.482 15.5933 292.587 16.3851C292.705 17.2691 293.206 18.1028 293.543 18.9575C294.255 18.6307 294.963 18.3039 295.759 17.9352V17.9394Z" fill="white"/>
<path d="M289.483 68.9509C289.146 70.2077 288.767 71.4562 288.484 72.7256C288.303 73.5384 288.126 74.393 288.215 75.2016C288.299 75.9767 288.725 76.7098 288.998 77.4639C289.672 77.2126 290.342 76.9654 291.42 76.5632C290.919 77.6567 290.645 78.6915 290.039 79.4749C289.251 80.493 287.76 80.1788 287.469 78.8214C287.141 77.3048 287.077 75.6373 287.334 74.1123C287.642 72.3025 288.421 70.568 288.998 68.8C289.158 68.8503 289.318 68.8964 289.478 68.9467L289.483 68.9509Z" fill="white"/>
<path d="M105.518 28.2164C105.249 29.2051 104.954 30.1896 104.722 31.1867C104.533 31.9953 104.234 32.8458 104.322 33.6376C104.415 34.4671 104.916 35.2505 105.24 36.0549C105.952 35.7575 106.664 35.4642 107.414 35.15C107.372 35.0746 107.502 35.2003 107.481 35.2757C107.035 36.7588 106.951 38.887 104.811 38.6063C102.742 38.334 103.109 36.2351 103.282 34.8316C103.564 32.5399 104.221 30.2944 104.718 28.0278C104.983 28.0907 105.249 28.1535 105.518 28.2164Z" fill="white"/>
<path d="M296.58 80.2499C296.248 79.8771 295.7 79.5503 295.616 79.1314C295.169 76.8313 296.29 68.6283 298.699 65.5867C298.168 67.8532 297.549 69.6966 297.347 71.5819C297.111 73.7604 297.297 75.9766 297.187 78.172C297.149 78.8925 296.757 79.5964 296.526 80.3128L296.58 80.2541V80.2499Z" fill="white"/>
<path d="M322.848 86.5594C323.548 85.6335 324.335 84.7579 324.921 83.765C325.317 83.0905 325.768 82.1269 325.548 81.5236C325.38 81.0544 324.213 80.9454 323.072 80.5223C323.628 79.8562 324.116 78.9764 324.866 78.4904C325.279 78.2223 326.564 78.4443 326.69 78.7585C327.035 79.588 327.339 80.7653 326.989 81.4817C326.033 83.4256 324.731 85.2062 323.564 87.0496C323.324 86.8862 323.084 86.7228 322.848 86.5636V86.5594Z" fill="white"/>
<path d="M45.607 19.456C45.7418 19.0789 45.7713 18.4421 46.0872 18.2327C46.8328 17.7425 47.8564 17.0135 48.4966 17.2188C49.0779 17.4031 49.7224 18.7605 49.6087 19.4895C49.1832 22.2253 47.4604 24.2069 45.0215 25.6271C45.8176 24.5756 46.7022 23.5785 47.3846 22.4557C47.7805 21.8021 48.1765 20.8302 47.9533 20.2311C47.789 19.7995 46.6011 19.7535 45.6112 19.456H45.607Z" fill="white"/>
<path d="M221.13 68.6367C221.909 67.6648 222.81 66.7598 223.43 65.6957C223.88 64.929 223.96 63.9487 224.205 63.0647C223.455 62.9013 222.705 62.7337 221.808 62.5368C221.938 62.1556 221.964 61.4433 222.313 61.2087C223.05 60.7144 223.998 60.1404 224.777 60.2409C225.228 60.2996 225.885 61.6528 225.801 62.3483C225.46 65.2181 223.619 67.183 221.13 68.6325V68.6367Z" fill="white"/>
<path d="M77.2496 13.4692C77.456 11.9903 78.231 10.7711 79.9454 11.1608C81.7272 11.5672 81.4324 13.1005 81.0069 14.4118C80.2361 16.7873 78.6817 18.5594 76.4492 19.766C77.3001 18.6935 78.2395 17.6755 78.964 16.5275C79.3726 15.8823 79.7306 14.9104 79.52 14.2778C79.381 13.8588 78.2015 13.7792 77.2496 13.4692Z" fill="white"/>
<path d="M179.259 54.4552C178.366 53.7807 177.532 53.0098 176.563 52.4694C175.826 52.0588 174.878 51.6817 174.112 51.8116C173.758 51.8703 173.61 53.169 173.332 54.0195C173.139 53.9734 172.557 54.0027 172.397 53.7597C171.845 52.9177 171.441 51.9834 170.982 51.0827C171.892 50.7601 172.882 50.0311 173.695 50.1903C176.159 50.6721 178.054 52.1761 179.255 54.4552H179.259Z" fill="white"/>
<path d="M18.2983 88.6416C18.9892 87.7786 19.7937 86.9784 20.3413 86.0315C20.7583 85.3068 21.1037 84.3557 20.9774 83.5891C20.9226 83.2455 19.6252 83.1073 18.867 82.8643C19.1408 81.0376 20.1223 80.0447 21.5039 80.5265C23.2394 81.134 23.0414 82.6506 22.4348 83.8069C21.4576 85.6796 20.1518 87.3848 18.9807 89.1611C18.7533 88.9893 18.5258 88.8134 18.2983 88.6416Z" fill="white"/>
<path d="M143.425 57.5135C144.251 56.4913 145.177 55.5319 145.86 54.4217C146.294 53.7179 146.576 52.7668 146.475 51.9834C146.437 51.6901 145.118 51.5603 143.888 51.2209C144.571 50.4375 145.14 49.5577 145.931 48.9837C146.273 48.7365 147.498 48.9795 147.591 49.2476C147.907 50.161 148.307 51.4011 147.928 52.1258C146.833 54.208 145.367 56.0975 144.049 58.0666C143.838 57.8822 143.627 57.6979 143.421 57.5135H143.425Z" fill="white"/>
<path d="M167.768 29.3475C167.941 28.895 167.979 28.2414 168.303 28.0445C169.065 27.5753 170.013 26.9929 170.792 27.1061C171.252 27.1731 171.905 28.5305 171.816 29.226C171.441 32.0916 169.579 34.0606 167.124 35.5773C167.498 35.0829 167.869 34.5885 168.252 34.0984C168.682 33.5495 169.251 33.0635 169.529 32.4477C169.878 31.6768 170.203 30.7719 170.093 29.9884C170.055 29.7036 168.733 29.5946 167.772 29.3475H167.768Z" fill="white"/>
<path d="M191.892 52.4945C192.658 51.5267 193.539 50.6218 194.158 49.5619C194.567 48.8622 194.84 47.8986 194.693 47.1445C194.634 46.8303 193.324 46.7549 192.444 46.537C192.574 46.1516 192.591 45.431 192.941 45.2006C193.678 44.7146 194.6 44.2328 195.422 44.2705C195.801 44.2873 196.471 45.5567 196.416 46.2061C196.176 49.101 194.348 51.0617 191.892 52.4945Z" fill="white"/>
<path d="M309.971 76.0521C310.772 75.0298 311.669 74.0663 312.339 72.9686C312.73 72.3192 313.076 71.3389 312.848 70.7272C312.693 70.3125 311.509 70.2747 310.359 69.948C310.932 69.2148 311.395 68.3099 312.137 67.7946C312.545 67.5097 313.889 67.7066 313.99 67.9873C314.323 68.888 314.681 70.1323 314.306 70.8822C313.303 72.8681 311.922 74.6654 310.688 76.5381L309.971 76.0563V76.0521Z" fill="white"/>
<path d="M264.276 11.253C264.499 10.7502 264.588 10.0422 264.975 9.79923C265.675 9.35933 266.622 8.87754 267.334 9.02836C267.81 9.12891 268.413 10.3187 268.354 10.9681C268.101 13.8882 266.197 15.8279 263.758 17.3697C264.525 16.3809 265.401 15.4551 266.028 14.3826C266.45 13.6661 266.521 12.7445 266.749 11.9191C266.007 11.718 265.266 11.5169 264.276 11.253Z" fill="white"/>
<path d="M155.948 72.3653C156.711 71.3849 157.566 70.4633 158.198 69.4075C158.627 68.6869 159.04 67.7024 158.863 66.9818C158.766 66.5796 157.444 66.4748 156.563 66.1983C156.643 65.9428 156.652 65.285 156.955 65.0923C157.76 64.5812 158.678 64.0617 159.579 64.0072C159.874 63.9905 160.607 65.4442 160.527 66.1606C160.207 69.0472 158.177 70.8571 155.944 72.3653H155.948Z" fill="white"/>
<path d="M139.124 17.7258C139.941 16.6993 140.847 15.7274 141.546 14.6297C141.959 13.9803 142.372 13.0126 142.161 12.3967C142.01 11.9484 140.843 11.8395 139.71 11.4289C140.207 10.7796 140.653 9.87881 141.378 9.37188C141.786 9.087 143.08 9.24201 143.227 9.54784C143.61 10.3564 143.989 11.563 143.64 12.2417C142.553 14.3448 141.129 16.2762 139.836 18.2746C139.6 18.0944 139.364 17.9101 139.128 17.73L139.124 17.7258Z" fill="white"/>
<path d="M241.247 28.5682C241.483 26.7626 242.511 25.7152 243.893 26.1635C245.552 26.7039 245.312 28.0362 244.921 29.2763C244.171 31.6643 242.705 33.5244 240.409 34.7101C241.201 33.7004 242.094 32.7494 242.743 31.6559C243.168 30.9437 243.463 29.9927 243.354 29.2092C243.311 28.9076 242.001 28.7777 241.243 28.564L241.247 28.5682Z" fill="white"/>
<path d="M175.851 74.016C176.146 72.4366 176.947 71.1462 178.716 71.6238C180.422 72.0889 180.22 73.7772 179.613 74.9294C178.623 76.8146 177.292 78.5198 176.104 80.3045C175.893 80.162 175.679 80.0154 175.468 79.873C176.226 78.8633 177.09 77.9081 177.709 76.8188C178.075 76.1736 178.307 75.2268 178.096 74.5732C177.987 74.2297 176.799 74.2255 175.851 74.016Z" fill="white"/>
<path d="M13.6817 31.6643C13.867 31.1992 13.9302 30.5122 14.2925 30.2608C14.9707 29.7874 15.9479 29.1715 16.5756 29.36C17.1316 29.5234 17.7634 30.73 17.7087 31.4255C17.4938 34.1612 15.7205 36.0256 13.3784 37.4835C13.7407 37.0059 14.1029 36.5283 14.4652 36.0507C14.8443 35.5521 15.3456 35.1039 15.5688 34.5467C15.8553 33.8261 16.1585 32.9463 15.969 32.2717C15.8763 31.9366 14.6884 31.9115 13.6775 31.6685L13.6817 31.6643Z" fill="white"/>
<path d="M69.3304 70.9241C70.0633 70.0066 70.9184 69.1603 71.4871 68.1548C71.921 67.384 71.9841 66.4078 72.2116 65.528C71.4744 65.3646 70.7373 65.2012 69.7895 64.9918C70.0296 64.4681 70.1476 63.6595 70.6109 63.3243C71.2133 62.8886 72.1568 62.5451 72.8224 62.7043C73.29 62.8174 73.8502 63.8397 73.8291 64.4429C73.7365 67.4761 71.7609 69.3991 69.3262 70.9241H69.3304Z" fill="white"/>
<path d="M231.121 67.8868C231.256 67.5014 231.281 66.8436 231.601 66.6383C232.36 66.1565 233.295 65.57 234.078 65.6705C234.529 65.7292 235.19 67.0824 235.11 67.7779C234.782 70.5555 233.025 72.4869 230.616 73.9113C231.403 72.9058 232.288 71.9548 232.937 70.8697C233.328 70.2162 233.67 69.2316 233.438 68.62C233.278 68.201 232.094 68.1633 231.125 67.8868H231.121Z" fill="white"/>
<path d="M179.503 16.8376C180.236 15.9201 181.087 15.0696 181.669 14.0683C182.119 13.2891 182.233 12.3171 182.494 11.4331C181.749 11.2278 180.999 11.0225 180.152 10.7879C180.241 10.4947 180.232 9.84528 180.531 9.63581C181.256 9.1205 182.233 8.38733 182.907 8.55072C183.471 8.68898 184.183 10.0338 184.086 10.7418C183.703 13.5027 181.938 15.4676 179.503 16.8376Z" fill="white"/>
<path d="M5.00031 67.3924C5.80907 66.3827 6.7105 65.4317 7.38447 64.3424C7.82255 63.6344 8.25221 62.6415 8.07108 61.9334C7.96156 61.5145 6.65153 61.4014 5.77537 61.1165C5.89332 60.7897 5.92701 60.0607 6.28927 59.8303C7.02643 59.3527 7.96156 58.8835 8.77454 58.9421C9.16207 58.9714 9.81919 60.245 9.74758 60.8902C9.41059 63.8857 7.5319 65.9009 4.99609 67.3965L5.00031 67.3924Z" fill="white"/>
<path d="M94.8994 40.8979C95.6155 39.9678 96.4243 39.0922 97.014 38.0868C97.3636 37.4919 97.7175 36.4487 97.4394 36.0507C97.1025 35.5731 96.0915 35.5731 95.0932 35.284C95.2785 34.865 95.3965 34.0187 95.8809 33.6417C96.458 33.1934 97.4226 32.8583 98.0797 33.0258C98.5515 33.1431 99.1159 34.1738 99.0907 34.777C98.9811 37.5966 97.2709 39.5154 94.8994 40.8937V40.8979Z" fill="white"/>
<path d="M117.246 79.7347C118.021 78.7544 118.897 77.8369 119.529 76.7769C119.954 76.0647 120.034 75.1514 120.27 74.3261C119.533 74.125 118.796 73.9197 117.802 73.6473C118.05 73.1362 118.206 72.3109 118.707 71.9129C119.23 71.4939 120.186 71.1881 120.754 71.385C121.268 71.5652 121.85 72.5036 121.833 73.0943C121.736 76.2197 119.718 78.2013 117.246 79.7389V79.7347Z" fill="white"/>
<path d="M32.7046 45.4309C33.4754 44.4674 34.3516 43.5708 34.975 42.5234C35.3963 41.8154 35.6827 40.8686 35.5816 40.0893C35.5437 39.7919 34.2547 39.6536 33.387 39.3981C33.4586 37.9611 34.1831 36.8131 35.8807 37.0268C37.8394 37.274 37.6246 39.0168 37.0938 40.1103C36.0913 42.1589 34.676 44.0107 33.4291 45.9463L32.7046 45.4309Z" fill="white"/>
<path d="M85.2866 78.6035C85.9606 77.7279 86.7441 76.9068 87.279 75.9516C87.6834 75.2268 88.0204 74.28 87.8772 73.53C87.8098 73.1865 86.5124 73.0776 85.7542 72.8555C86.087 70.9996 87.1316 69.9941 88.4796 70.5094C90.0676 71.1169 89.9581 72.5665 89.3978 73.6599C88.4332 75.562 87.14 77.3006 85.9816 79.1063C85.75 78.9387 85.5183 78.7711 85.2866 78.6035Z" fill="white"/>
<path d="M98.4879 59.9476C98.2394 59.9644 97.6202 60.2032 97.3253 59.9937C96.5966 59.4784 95.5983 58.8123 95.5098 58.1084C95.4424 57.5722 96.525 56.5039 97.2495 56.3405C99.6842 55.7874 101.879 56.6505 103.804 58.2718C102.898 57.9911 102.014 57.5973 101.087 57.4633C100.24 57.3376 99.2377 57.2622 98.5427 57.6224C98.2268 57.7858 98.4879 59.0553 98.4879 59.9518V59.9476Z" fill="white"/>
<path d="M281.9 79.521C282.136 79.0476 282.288 78.2348 282.772 77.908C283.387 77.4933 284.356 77.1833 285.013 77.376C285.477 77.5142 285.986 78.5909 285.923 79.19C285.645 81.8504 284.133 83.8152 281.846 85.2313C282.444 84.4185 283.139 83.6519 283.615 82.7721C284.015 82.0347 284.508 81.0502 284.297 80.384C284.154 79.9316 282.865 79.8352 281.9 79.521Z" fill="white"/>
</g>
<defs>
<clipPath id="clip0_121_77">
<rect width="333" height="94" fill="white"/>
</clipPath>
</defs>
</svg>
