<?xml version="1.0" encoding="UTF-8"?>
<svg id="Calque_2" data-name="Calque 2" xmlns="http://www.w3.org/2000/svg" viewBox="0 0 790.54 224.37">
  <defs>
    <style>
      .cls-1 {
        fill: #fff;
      }
    </style>
  </defs>
  <g id="Calque_1-2" data-name="Calque 1">
    <g>
      <path class="cls-1" d="M477.32,156.68c-.68,3.92-1.03,7.93-2.1,11.74-4.05,14.47,6.56,33.98,28.34,34.92,20.34,.87,38.1-6.67,54.75-17.49,2.09-1.36,3.94-3.09,6.06-4.4,7.88-4.88,9.76-11.69,6.68-20.16-1.08-2.97-1.76-6.19-3.36-8.85-3.51-5.8-1.83-11.07,.62-16.51,3.52,3.69,6.94,7.28,10.95,11.48,3.77-5.77,6.62-10.64,9.97-15.12,4.37-5.85,8.54-12.04,13.86-16.93,12.31-11.31,28.78-9.43,38.63,4.13,1.85,2.55,2.84,6.52,2.55,9.68-.79,8.63-4.28,16.28-12.32,20.56-7.3,3.89-14.82,7.45-22.53,10.42-3.36,1.29-5.44,2.67-5.93,6.22-.75,5.43-2.17,10.84-2.24,16.27-.13,9.83,6.16,16.61,16.02,16.76,5.49,.08,11.38-.93,16.45-3.02,14.24-5.87,25.93-15.53,36.21-26.89,2.24-2.48,4.36-5.21,2.25-8.39-5.33,0-10.32,.37-15.24-.08-8.64-.8-12.03-5.5-10.37-14.04,.5-2.56,1.5-5.16,2.85-7.39,6.07-10.07,14.08-10.58,21.56-1.55,.53,.64,1.03,1.31,1.52,1.98,5.5,7.63,5.55,7.75,14.4,3.61,4.51-2.11,8.91-4.53,13.11-7.2,4.14-2.63,4.05-5.96-.18-8.42-1.93-1.13-4.34-1.73-6.59-1.94-4.3-.4-8.66-.18-12.97-.52-5.6-.44-8.72-3.77-9.1-9.38-.51-7.56,2.69-13.64,8.01-18.62,3.85-3.6,8.33-2.91,12.54-.59,6.12,3.37,9.93,8.81,12.45,15.14,3.3,8.31,3.92,17.02,1.36,25.48-1.17,3.85-3.95,7.9-7.16,10.3-5.14,3.84-11.35,6.22-16.88,9.57-1.73,1.05-3.59,3.1-3.96,4.97-1.65,8.48-5.11,16-11.59,21.63-9.02,7.83-18.26,15.45-27.87,22.53-3.62,2.66-8.41,4.09-12.88,5.16-13.8,3.3-25.65-4.72-26.52-18.87-.51-8.3,1.5-16.77,2.47-25.15,.19-1.61,.86-3.16,1.3-4.7-8.66-.95-17.09-1.87-25.89-2.83-.34,3.61-.71,7.85-1.16,12.08-.73,6.88-3.37,12.74-8.72,17.4-15.51,13.52-32.82,23.33-53.51,26.09-24.05,3.21-39.84-10.07-40.9-34.26-.38-8.68,.34-17.19,5.1-24.81Zm107.3-9.15c.75,.57,1.09,.97,1.51,1.13,12.33,4.5,44.03-3.2,52.54-12.87,.63-.72,.84-2.52,.39-3.36-5.74-10.71-22.75-15.34-33.34-8.97-9.56,5.75-15.53,14.7-21.1,24.07Zm108.61-33.17c-3-4.87-5.98-7.23-10.31-7.07-1.31,.05-2.56,1.5-3.84,2.31,.96,1.19,1.74,3.13,2.92,3.42,3.17,.77,6.51,.84,11.22,1.34Zm-27.36,34.83c-2.27-4.49-5.09-6.66-9.28-6.01-1.47,.23-2.73,1.77-4.09,2.71,1.08,1.1,2.05,2.97,3.26,3.14,3.09,.45,6.3,.15,10.11,.15Z"/>
      <path class="cls-1" d="M4.38,172.06c-.21,2.25-.72,4.52-.59,6.75,.5,8.91,.76,17.88,1.99,26.7,.64,4.6,3.96,8.24,9.15,8.64,4.88,.37,7.63-3.06,9.56-6.84,3.25-6.37,5.59-13.27,9.31-19.33,3.6-5.86,7.95-11.48,12.91-16.23,4.9-4.7,9.59-3.46,13.33,2.19,1.56,2.36,3.04,4.78,4.54,7.17,3.79,6.06,9.28,8.6,16.39,8.62,13.58,.04,20.8-6.01,21.36-19.55,1.2-29.01-.28-57.91-5.51-86.52-1.23-6.72-1.16-13.15,2.03-20.68,1.01,2.99,1.83,4.97,2.36,7.02,6.46,25.05,7.29,50.68,7.98,76.34,.26,9.64,.75,19.33,2.03,28.88,1.65,12.37,10.73,16.25,20.83,9.02,2.14-1.54,3.82-5.15,3.9-7.87,.24-7.8-.3-15.64-.79-23.44-1.47-23.6-2.85-47.21-4.76-70.78-.52-6.47-2.05-12.7,3.16-18.93,3.61,9.46,7.06,18.48,10.5,27.5-.42,.3-.83,.59-1.25,.89-1.4-.92-2.8-1.85-4.91-3.24,0,1.8-.08,3.16,.01,4.5,1.47,21.77,3.3,43.52,4.26,65.31,.34,7.87-.89,15.93-2.42,23.71-.83,4.23-3.42,8.29-5.9,11.96-3.45,5.11-8.62,7.14-14.82,6.07-6.23-1.08-10.05-4.85-11.82-10.81-.7-2.36-1.28-4.75-2.12-7.89-.56,1.29-.86,1.81-1.03,2.36-4.6,15.16-16.28,22.08-31.64,17.86-3.8-1.04-7.22-4.44-10.15-7.41-2.39-2.43-3.71-5.89-5.67-8.79-2.99-4.44-5.97-5.5-9.95-1.97-4.49,3.99-8.43,8.87-11.6,13.99-3.12,5.05-4.93,10.9-7.4,16.36-.82,1.81-1.74,3.62-2.9,5.23-5.33,7.37-12.5,7.45-17.29-.24-2.6-4.17-4.64-8.92-5.83-13.68-2.49-10.01-2-20.15,.64-30.14,.27-1.02,.84-1.95,1.26-2.93l.84,.21Z"/>
      <path class="cls-1" d="M163.12,200.29c1.99-.5,4.23-1.84,5.93-1.35,9.43,2.73,18.52,1.13,27.54-1.53,15.49-4.58,29.48-12.22,42.7-21.37,.82-.57,1.57-1.24,2.29-1.93,.34-.33,.53-.82,1.34-2.15-2.28-1.01-4.31-2.23-6.51-2.83-6.26-1.72-12.67-2.91-18.86-4.82-9.49-2.94-12.22-7.16-10.42-16.8,3.11-16.67,12.01-29.79,25.85-39.48,5.62-3.94,9.54-3.83,12.53-.33,3.57,4.17,3.05,11.38-1.13,15.73-6.36-7.05-9.23-7.5-16.36-.46-5.5,5.44-10.3,11.71-14.74,18.08-3.25,4.67-2.33,7.02,3.09,9.16,5.37,2.12,11.06,3.47,16.61,5.13,1.27,.38,2.6,.57,3.87,.94,11.47,3.35,14.7,11.05,9.13,21.74-.61,1.18-1.45,2.26-1.97,3.47-2.19,5.07,.69,10.81,6.02,12.09,10.48,2.52,18.28-3.33,17.86-14.1-.62-15.64-1.84-31.25-2.81-46.88-.89-14.29-1.67-28.59-2.76-42.86-.45-5.88-2.66-11.76,1.05-17.35,.45-.67,.85-1.37,1.89-3.03,3.75,9.95,7.18,19.07,10.62,28.2-.45,.23-.9,.45-1.35,.68-1.44-.96-2.88-1.92-5.13-3.42,.42,6.68,.77,12.56,1.17,18.43,1.18,17.45,2.9,34.88,3.36,52.35,.22,8.34-1.34,16.88-3.2,25.07-.94,4.14-3.92,8.07-6.74,11.46-4.22,5.07-10.04,5.54-15.99,3.39-5.82-2.1-7.84-6.8-7.87-12.62-.01-1.96,0-3.91,0-6.99-2.19,1.57-3.59,2.56-4.97,3.56-16.11,11.69-33.43,20.74-53.47,23.21-8.61,1.06-16.92-.34-24.11-6.48,.84-1.33,1.6-2.52,2.35-3.72,1.07-.73,2.14-1.45,3.21-2.18Z"/>
      <path class="cls-1" d="M390.36,186.79c-2.32,.86-4.7,1.61-6.96,2.61-10.1,4.48-20.41,8.22-31.6,8.6-14.56,.5-24.16-6.35-28.47-20.12-4.4-14.04,.76-38.78,11.23-49.92-.62,1.68-1.37,3.32-1.83,5.04-2.28,8.46-5.82,16.85-6.41,25.44-1.12,16.38,9.53,27.13,25.89,26.67,7.68-.22,15.81-1.54,22.81-4.54,12.63-5.4,24.57-12.42,36.77-18.83,1.16-.61,2.14-1.58,3.12-2.47,.47-.42,.76-1.03,1.63-2.27-2.33-1.02-4.29-2.18-6.4-2.75-6.26-1.7-12.66-2.93-18.87-4.8-9.61-2.89-12.75-7.43-10.58-17.17,3.58-16.12,11.66-29.65,25.7-39.01,5.82-3.87,9.98-3.74,12.95-.06,3.09,3.82,2.36,11.43-1.49,15.44-6.01-7.09-8.87-7.88-15.61-1.48-5.94,5.64-10.91,12.42-15.62,19.18-3.07,4.4-2.05,6.62,3.08,8.84,3.94,1.71,8.16,2.81,12.3,4.04,3.03,.9,6.15,1.47,9.18,2.35,9.82,2.83,13.07,8.42,9.54,18.08-1.48,4.04-4.26,8.07-7.51,10.87-5.51,4.75-11.86,8.53-17.85,12.72-1.75,1.23-3.48,2.5-5.22,3.75,0,0,.21-.21,.21-.21Z"/>
      <path class="cls-1" d="M390.36,186.79s-.21,.21-.21,.21c1.35,.58,3.36,.79,3.93,1.81,5.61,9.97,11.2,12.71,22.28,9.82,17.17-4.49,31.39-14.25,44.34-25.98,1.09-.98,1.3-4.05,.64-5.61-1.42-3.33-3.74-6.27-5.58-9.43-4.43-7.62-1.39-16.84,6.68-20.32,3.06-1.32,6.13-2.62,9.22-3.84,5.74-2.26,11.49-4.4,14.73-10.33,.76-1.39,2.28-2.42,3.59-3.43,7.22-5.56,14.37-3.59,16.25,5.36,1.32,6.32,1.38,13.22,.39,19.62-1.08,7-4.04,8.25-10.76,5.86-4.83-1.72-9.26-4.52-14.05-6.36-2.22-.85-5.11-1.32-7.3-.66-4.54,1.37-8.82,3.61-13.46,5.6,1.7,3.61,2.99,6.64,4.51,9.56,4.53,8.67,1.93,16.57-3.9,22.98-10.76,11.82-23.83,20.79-38.51,27.19-3.61,1.57-7.63,2.51-11.56,2.97-13.42,1.6-24.64-11.75-21.25-25.01Zm95.95-56.21c-.03,.93-.06,1.86-.09,2.79,4.64,1.96,9.27,3.92,13.91,5.87,.55-.78,1.1-1.57,1.65-2.35-2.32-2.49-4.23-5.84-7.08-7.19-2.17-1.03-5.55,.49-8.39,.87Z"/>
      <path class="cls-1" d="M163.12,200.29c-1.07,.73-2.14,1.45-3.21,2.18-10.2,5.86-21.39,8.27-33.2,9.03,1.31-.88,2.59-1.82,3.94-2.64,8.38-5.12,16.93-9.98,25.12-15.38,24.16-15.92,31.65-42.44,19.2-68.47-3.65-7.63-8-14.98-12.6-22.1-12.28-19.02-24.31-38.24-37.62-56.52-4.94-6.78-6.4-12.97-5-21.97,8.85,7.5,17.13,14.53,25.42,21.56-.24,.41-.47,.81-.71,1.22-2.15-.43-4.29-.86-7.53-1.52,1.61,2.46,2.69,4.05,3.69,5.67,12.1,19.5,24.77,38.69,36.12,58.62,10.3,18.09,12.56,37.73,6.33,57.93-3.85,12.49-10.74,23.16-19.95,32.38Z"/>
      <path class="cls-1" d="M492.4,196.64c8.81-5.29,17.62-10.58,26.42-15.88,23.6-14.24,28.43-26.74,20.18-53.07-4.62-14.73-11.7-28.31-20.78-40.77-7.45-10.22-15.88-19.78-22.74-30.36-2.56-3.94-1.92-9.95-2.74-15.02,.64-.35,1.29-.71,1.93-1.06,8.29,7.02,16.57,14.04,24.86,21.06-.24,.42-.48,.84-.72,1.26-2.16-.44-4.32-.88-7.77-1.58,1.95,2.18,3.1,3.45,4.24,4.73,16.68,18.71,28.2,40.04,31.37,65.11,2.48,19.62-.86,37.87-15.86,52.45-10.63,10.33-24.51,11.57-37.78,14.6-.2-.5-.4-.99-.59-1.49Z"/>
      <path class="cls-1" d="M703.95,191.69c9.44-4.66,17.33-11.09,22.76-20.24,4.01-6.77,3.42-14.14,2.1-21.4-3.91-21.47-14.15-40.03-26.99-57.3-6.55-8.8-13.96-17.03-19.76-26.28-2.42-3.86-1.65-9.72-2.32-14.67,.59-.3,1.18-.6,1.78-.9,8.3,7.01,16.6,14.02,24.9,21.03-.24,.4-.47,.79-.71,1.19-2.16-.42-4.32-.84-7.62-1.48,1.91,2.2,3.04,3.54,4.22,4.85,15.44,17.21,26.23,36.82,30.37,59.74,4.26,23.59,.33,44.76-18.72,61.27-1.81,1.25-3.61,2.5-5.42,3.74-8.16,2.13-16.32,4.3-24.5,6.38-1.48,.38-3.04,.41-4.83-.31,8.3-5.25,16.6-10.5,24.89-15.75,0,0-.13,.15-.13,.15Z"/>
      <path class="cls-1" d="M708.53,201.22c1.81-1.25,3.61-2.5,5.42-3.74,25.88,3.38,41.94-13.21,58.33-28.91,3.76-3.6,2.8-6.51-2.32-7.74-3.85-.92-7.91-.97-11.88-1.34-9.7-.91-13.27-5.77-10.78-15.26,.7-2.67,1.95-5.37,3.59-7.58,6.61-8.97,14.48-8.73,21.12,.19,8.16,10.95,12.06,32.81-3.37,45.86-9.37,7.93-18.91,15.71-28.89,22.84-6.02,4.3-13.36,6.45-20.89,4.73-3.56-.81-6.87-3.06-10.03-5.06-.67-.42-.22-2.62-.29-4Zm58.75-52.67c-2.68-5.12-5.68-7.64-10.26-7.09-1.39,.17-2.6,1.91-3.89,2.93,1.08,1.05,2.01,2.76,3.26,3.03,3.16,.68,6.47,.72,10.89,1.12Z"/>
      <path class="cls-1" d="M296.77,187.85c2.07-3.74,4.13-7.48,6.2-11.21,7.03-12.72,8.43-26.05,4.67-40.07-4.86-18.1-13.4-34.36-24.49-49.32-6.93-9.35-14.77-18.09-20.98-27.89-2.48-3.91-1.65-9.91-2.33-14.96,.62-.27,1.24-.53,1.86-.8,8.23,6.99,16.46,13.98,24.69,20.96-.19,.45-.38,.91-.57,1.36-2.21-.47-4.43-.94-7.94-1.69,2,2.21,3.18,3.49,4.34,4.79,16.87,18.98,28.55,40.54,31.45,66.07,2.05,18.06-.6,35.24-12.61,49.88-1.02,1.25-2.2,2.37-3.31,3.54-.32-.22-.64-.45-.96-.67Z"/>
      <path class="cls-1" d="M43.41,152.18c-7.56-2.83-8.42-6.99-6.2-12.28,.19-.45,.24-.97,.31-1.46,1.03-8.15,3.81-9.57,10.75-4.89,2.96,2,6.03,4.58,7.61,7.65,1.2,2.33,.82,6.12-.22,8.72-.56,1.39-3.99,1.62-6.11,2.41-2.16,.81-4.92,1.1-6.36,2.62-8.89,9.37-19.99,14.6-32.4,17.65,10.41-6.51,20.81-13.03,32.62-20.42Zm.8-5.96c.5-.4,.99-.81,1.49-1.21-.88-1.85-1.75-3.69-2.63-5.54-1.67,1.13-3.35,2.26-6.21,4.19,3.54,1.23,5.44,1.9,7.34,2.56Zm5.21-5.74c-.43,.26-.86,.52-1.29,.78-.24,1.57-.48,3.14-.81,5.27,2.45,.32,4.56,.6,6.67,.88,.24-.41,.48-.83,.72-1.24-1.76-1.9-3.52-3.8-5.28-5.69Z"/>
      <path class="cls-1" d="M249.53,39.64c.54-2.14,1.1-4.52,1.75-6.86,.67-2.4,1.17-4.89,2.23-7.11,1.18-2.49,2.54-5.45,6.24-4.3,2.98,.92,3.77,4.42,2.13,8.33-6.14-2.62-6.62-2.42-8.51,4.55-.92,3.36-1.49,6.82-2.3,10.21-2.51,10.53-8.95,18.13-18.28,23.16-6.37,3.43-13.14,6.14-19.72,9.17-.25-.44-.49-.88-.74-1.32,2.26-1.35,4.56-2.64,6.77-4.07,7.93-5.17,15.86-10.35,23.72-15.62,4.52-3.04,5.57-7.12,3.23-12.1-1.06-2.25-1.61-4.81-2.97-6.83-.86-1.28-2.83-1.78-4.25-2.72-1.71-1.13-4.58-2.2-4.75-3.56-.23-1.87,1.19-4.49,2.74-5.8,.8-.68,4.25,.19,5.04,1.35,2.84,4.17,5.06,8.77,7.69,13.54Z"/>
      <path class="cls-1" d="M768.31,76.93c.64-2.55,1.33-5.58,2.17-8.56,.59-2.07,1.15-4.21,2.16-6.07,1.25-2.3,2.84-5.25,6.08-3.44,3.3,1.84,4.22,4.87,1.89,8.37-5.57-2.94-6.52-2.59-8.19,3.39-1.02,3.68-1.72,7.45-2.59,11.17-2.44,10.36-8.7,17.91-17.82,22.93-6.32,3.48-13.07,6.18-19.62,9.23-.23-.44-.45-.88-.68-1.32,5.55-3.45,11.19-6.76,16.62-10.38,5.11-3.4,10.06-7.04,14.97-10.72,2.86-2.14,3.56-5.03,2.14-8.42-1.08-2.61-1.93-5.31-3-7.92-.95-2.32-1.78-4.38-5.3-3.97-1.41,.16-4.18-2.22-4.43-3.76-.28-1.67,1.22-4.32,2.76-5.38,.98-.68,4.26,.16,5.05,1.31,2.93,4.3,5.26,9.02,7.8,13.54Z"/>
      <path class="cls-1" d="M474.55,72.48c1.71-5.7,2.89-10.56,4.66-15.19,.97-2.54,2.75-5.7,6.27-3.82,3.41,1.82,4.15,4.93,1.67,8.58-1.5-.93-2.85-1.78-5.05-3.15-1.24,2.75-2.35,5.2-3.44,7.66-.13,.3-.23,.64-.26,.96-2.33,24.45-19.28,34.41-41.17,40.91,1.17-1.11,1.59-1.62,2.1-1.98,.68-.47,1.46-.8,2.16-1.25,8.8-5.68,17.73-11.19,26.32-17.19,2.22-1.55,5.06-4.92,4.7-6.94-.9-5.11-3.43-9.94-5.44-14.82-.14-.35-1.58,.01-2.18-.35-1.94-1.18-4.63-2.19-5.37-3.96-.52-1.26,1.25-4.71,2.69-5.22,1.57-.55,4.64,.59,5.8,2.02,2.14,2.64,3.42,5.99,4.95,9.11,.61,1.24,.91,2.62,1.58,4.62Z"/>
      <path class="cls-1" d="M374.8,67.44c-5.52-2.99-6.4-2.65-8.08,3.44-1.02,3.69-1.76,7.46-2.62,11.19-2.54,11.01-9.5,18.59-19.16,23.71-6.1,3.24-12.61,5.73-18.93,8.55-.19-.37-.39-.74-.58-1.11,6.1-3.8,12.27-7.48,18.26-11.44,4.71-3.12,9.2-6.56,13.74-9.92,3.13-2.32,3.63-5.34,2.17-8.86-1.08-2.61-1.96-5.31-3.06-7.91-.9-2.12-1.6-4.1-4.97-3.58-1.4,.21-4.44-2.23-4.54-3.62-.14-1.91,1.42-4.48,3.04-5.74,.81-.63,4.19,.46,5.02,1.69,2.8,4.19,4.97,8.79,7.56,13.55,.69-2.81,1.34-5.81,2.16-8.75,.58-2.07,1.1-4.25,2.17-6.08,1.27-2.17,2.71-5.4,6.03-3.47,3.22,1.87,4.41,4.85,1.81,8.35Z"/>
      <path class="cls-1" d="M641.75,40.72c10.8-6.95,21.59-13.89,32.64-21.01-1.2-1.47-1.53-2.04-2.01-2.44-6.48-5.45-5.2-13.26,2.75-16.63,3.43-1.46,5.62-.42,5.88,3.36,.15,2.12-.45,4.28-.48,6.42-.02,1.37-.09,3.4,.71,4,3.51,2.66,2.24,4.98-.14,7.75-1.38-.67-2.77-1.36-4.4-2.16-9.17,11.19-21.29,17.25-34.96,20.7Z"/>
      <path class="cls-1" d="M574.8,88.69c10.71-6.89,21.41-13.77,32.19-20.71-.93-1.45-1.1-1.95-1.45-2.23-6.69-5.42-6.12-12.2,1.42-16.48,4.09-2.32,6.89-.82,6.95,3.91,.03,1.97-.64,3.95-.72,5.93-.05,1.19,.03,3,.76,3.51,3.73,2.58,2.21,4.93-.1,7.72-1.37-.68-2.77-1.36-4.35-2.14-9.17,11-21.1,17.14-34.72,20.5Zm34.05-28.55c.57-.32,1.13-.63,1.7-.95-.62-1.62-.95-3.5-2.03-4.72-.39-.44-2.58,.72-5.04,1.5,2.47,1.92,3.92,3.04,5.37,4.17Z"/>
      <path class="cls-1" d="M280.53,102.83c9.28,8.67,11.02,19.03,8.05,30.33-1.1,4.19-1.33,6.98,2.13,10.44,5.28,5.27,3.23,15.05-3.01,17.87-5.24,2.37-8.97,.18-8.23-5.48,.64-4.86,2.33-9.64,4.03-14.29,2.54-6.94,5.37-13.86,2.31-21.22-1.51-3.62-3.63-7.15-6.18-10.12-2.47-2.87-2.18-4.81,.89-7.54Zm4.13,43.34c-.59,.13-1.17,.26-1.76,.39-.07,3.03-1.34,7.78,.04,8.75,3.19,2.24,6.2-.54,8.86-3.84-2.56-1.9-4.85-3.6-7.15-5.3Z"/>
      <path class="cls-1" d="M543.95,17.83c9.89,7.34,13.29,19.08,9.68,31.41-1.2,4.09-1.12,6.67,2.12,9.97,5.87,5.97,2.68,16.77-4.91,18.38-4.09,.87-6.9-1.04-6.36-5.17,.6-4.56,1.67-9.25,3.58-13.39,5.7-12.34,5.97-23.67-3.99-34.16-.99-1.04-.13-3.83-.13-7.03Zm5.3,43.72c-1.43,3.99-4.63,7.62-.65,9.9,3.05,1.75,6.38-.63,8.17-4.53-2.43-1.74-4.65-3.32-7.53-5.37Z"/>
      <path class="cls-1" d="M164.21,16.07c5.24,4.02,8.43,9.31,8.84,15.56,.37,5.69-.31,11.55-1.29,17.2-.48,2.77-.61,4.6,1.69,6.49,4.47,3.67,5.17,8.81,3.01,13.57-1.24,2.72-4.47,5.16-7.37,6.33-3.32,1.34-5.94-.81-5.75-4.63,.15-3.11,.76-6.26,1.64-9.25,1.02-3.5,2.48-6.88,3.87-10.25,4.18-10.16,2.28-19.29-4.99-27.22-2.64-2.88-2.48-4.98,.37-7.78Zm11.22,50.76c.02-.78,.04-1.56,.06-2.34-2.29-1.69-4.58-3.38-6.87-5.07-.62,.16-1.24,.32-1.85,.48-.06,3-.12,6-.17,9,2.95-.69,5.89-1.37,8.84-2.06Z"/>
      <path class="cls-1" d="M361.53,207.86c1.48-2.45,2.73-4.53,3.96-6.58,12.95,6.34,12.06,7.02,5.56,16.11-3.1-1.97-6.25-3.97-9.62-6.11-1.51,2.4-2.9,4.59-4.47,7.08-3.5-2.41-6.74-4.64-10.41-7.17,1.6-3.26,3.09-6.28,4.81-9.8,3.69,2.35,6.83,4.35,10.16,6.47Z"/>
      <path class="cls-1" d="M517.64,167.77c-1.86-11.69-3.87-23.37-5.51-35.09-.84-5.98,2.71-9.53,8.58-11.28-.36-.55-.72-1.11-1.08-1.66-1.82,.59-3.63,1.17-7.05,2.28,2.07-3.57,3.29-8.18,5.31-8.55,2.68-.5,6.38,1.82,8.85,3.88,1.37,1.14,1.7,4.29,1.4,6.37-.18,1.27-2.33,2.52-3.84,3.26-1.91,.94-4.07,1.39-6.14,1.98-3.62,1.03-4.1,2.97-3.38,6.72,1.69,8.76,2.59,17.68,3.65,26.55,.22,1.84-.26,3.75-.42,5.63-.13-.03-.25-.06-.38-.09Z"/>
      <path class="cls-1" d="M407.93,221.88c1.61-1.76,2.89-4.38,4.88-5.15,17.81-6.85,35.75-13.38,53.66-19.98,.27-.1,.63,.03,2.36,.15-2.01,2.07-3.16,4.18-4.88,4.86-18.19,7.23-36.47,14.24-54.73,21.31-.43-.4-.87-.79-1.3-1.19Z"/>
      <path class="cls-1" d="M422.32,44.81c-6.63,6.2-14.04,8.27-22.32,6.88-4.13-.69-6.17-4.61-4.38-8.98,1.47-3.57,4.15-6.69,6.51-9.84,1.57-2.09,3.52-3.89,5.09-7.34-3.56-.34-7.12-.67-12.05-1.14,2.34-1.9,4.11-4.49,6.12-4.71,3.24-.34,6.72,.68,9.91,1.72,.42,.14,.42,4.25-.59,5.63-2.85,3.86-6.5,7.11-9.5,10.87-1.44,1.81-2.14,4.22-3.17,6.36,2.36,.9,4.75,2.63,7.08,2.55,5.56-.19,11.09-1.23,17.29-2Z"/>
      <path class="cls-1" d="M42.34,58.98c1.53-1.64,2.76-4.07,4.64-4.8,17.2-6.66,34.52-13.03,51.82-19.44,.86-.32,1.89-.19,4.35-.41-2.03,2.18-2.92,3.95-4.29,4.49-18.38,7.23-36.83,14.3-55.27,21.4-.42-.42-.83-.83-1.25-1.25Z"/>
      <path class="cls-1" d="M723,27.32c-3.52-.24-7.04-.49-11.97-.83,2.34-1.95,4.02-4.51,5.98-4.73,3.27-.38,6.79,.49,10,1.47,.43,.13,.49,4.51-.58,5.98-2.92,4-6.7,7.36-9.81,11.24-1.31,1.64-1.78,3.96-2.63,5.97,2.06,.86,4.14,2.51,6.16,2.42,5.76-.24,11.5-1.18,16.96-1.81-3.36,5.42-16.74,9.27-22.64,6.12-4.19-2.23-4.18-6.09-2.45-9.48,1.85-3.63,4.71-6.77,7.24-10.04,1.3-1.67,2.84-3.15,4.27-4.71l-.53-1.6Z"/>
      <path class="cls-1" d="M450.71,28.35c1.97-1.8,3.65-4.38,5.97-5.27,17.36-6.68,34.84-13.04,52.3-19.47,.43-.16,.95-.07,3.06-.2-2.26,2.3-3.42,4.44-5.16,5.12-18.23,7.18-36.55,14.13-54.85,21.14-.44-.44-.88-.88-1.32-1.32Z"/>
      <path class="cls-1" d="M331.86,199.58c-1.26,1.29-2.28,3.18-3.81,3.78-18.34,7.22-36.75,14.26-56.19,20.59,1.29-1.77,2.21-4.49,3.93-5.15,18.23-7.02,36.58-13.71,54.9-20.49,.39,.42,.78,.85,1.17,1.27Z"/>
      <path class="cls-1" d="M628.44,177.29c.75-2.94,1.53-6.3,2.46-9.62,.49-1.75,.96-3.61,1.93-5.1,1.37-2.11,2.79-5.34,6.1-3.34,3.19,1.94,4.34,4.91,1.71,8.38-5.32-3-6.49-2.55-8.09,3.34-1.13,4.17-1.99,8.42-3.07,12.61-.39,1.51-1.08,2.94-2.01,5.38-1.92-5.23-3.34-9.38-4.98-13.44-.89-2.2-1.48-4.65-5.21-3.85-1.25,.27-4.35-2.35-4.41-3.74-.08-1.93,1.57-4.32,3.17-5.75,.64-.57,3.85,.42,4.61,1.56,2.88,4.32,5.23,9,7.8,13.56Z"/>
      <path class="cls-1" d="M658.35,91.83c1.4,3.81,2.59,6.7,3.51,9.67,.53,1.71,1.29,3.81,.75,5.3-1.01,2.79-2.44,5.85-4.64,7.58-.9,.71-4.28-1.75-5.59-2.34-3.06,1.43-6.26,4.31-8.78,3.8-4.58-.93-3.82-5.85-4.1-9.61-.11-1.45-.09-3.11-.78-4.29-2.04-3.51,.07-4.99,3.59-7.38-.17,3.68-.41,6.38-.37,9.08,.05,2.96-.1,6.84,3.97,6.69,3.77-.14,4.9-3.46,4.52-7.05-.35-3.29-.72-6.58-1.07-9.88,.67-.11,1.35-.21,2.02-.32,.65,3.06,1.26,6.14,1.96,9.19,.4,1.75,.53,3.82,1.58,5.09,.79,.96,2.83,.89,4.32,1.27,.11-1.29,.64-2.71,.26-3.84-1.33-3.96-4.11-7.68-1.14-12.97Z"/>
      <path class="cls-1" d="M313.09,35.04c-3.68-.25-7.3-.5-10.83-.75,1.73-5.26,11.28-7.83,14.66-3.45,.9,1.17,.59,4.35-.39,5.71-2.82,3.87-6.45,7.13-9.39,10.92-1.49,1.92-2.18,4.45-3.24,6.7,2.4,.82,4.82,2.35,7.2,2.31,5.19-.08,10.36-.97,16.26-1.6-6.18,5.6-12.94,7.63-20.44,6.72-4.84-.58-7.02-3.9-5.54-8.63,1-3.19,3.16-6.1,5.16-8.88,1.83-2.54,4.17-4.72,6.25-7.08,.18-.2,.11-.62,.3-1.97Z"/>
      <path class="cls-1" d="M200.98,123.96c1.29-4.38,2.45-9.23,4.2-13.86,.95-2.5,2.6-5.82,6.16-4.04,3.42,1.71,4.19,4.84,2.03,8.35-5.88-2.8-6.48-2.59-8.29,3.85-1.55,5.51-2.83,11.1-5.35,16.52-1.59-4.22-3.1-8.48-4.8-12.65-.84-2.06-1.4-4.28-4.9-3.58-1.3,.26-4.37-2.21-4.47-3.59-.14-1.91,1.41-4.34,2.94-5.81,.61-.58,3.87,.3,4.62,1.4,2.91,4.3,5.31,8.95,7.86,13.41Z"/>
      <path class="cls-1" d="M70.31,59.9c-.15,2.77-.48,5.55-.41,8.32,.07,2.8,.06,6.45,3.88,6.35,3.47-.1,4.91-3.09,4.63-6.51-.15-1.81-.81-3.59-.9-5.39-.09-1.79,.24-3.59,.39-5.39,.55-.03,1.1-.06,1.64-.09,.61,3.35,1.11,6.73,1.88,10.05,.4,1.71,.91,3.63,2.03,4.86,.7,.77,2.63,.4,4.01,.55,.05-1.18,.48-2.5,.09-3.5-1.51-3.95-4.14-7.69-1.13-13.4,1.64,5.24,3.81,9.47,4.01,13.79,.14,2.96-2.01,6.45-4.12,8.83-.63,.72-4.56-1.48-7.45-2.51,0,0-.34,1.11-1.09,1.58-1.84,1.16-4.11,3.09-5.76,2.72-1.68-.37-3.44-2.93-4.08-4.88-1.15-3.5-1.84-7.26-2-10.94-.07-1.68,1.58-3.44,2.46-5.16,.63,.24,1.27,.49,1.9,.73Z"/>
      <path class="cls-1" d="M91.76,157.37c-5.02-3.24-6.1-3-7.69,2.21-1.74,5.68-3.06,11.49-5.74,17.3-1.58-4.02-3.13-8.06-4.76-12.06-.87-2.15-1.56-4.1-4.92-3.66-1.45,.19-4.47-2.17-4.59-3.55-.15-1.89,1.38-4.47,2.99-5.73,.82-.64,4.2,.42,5.02,1.64,2.81,4.2,5,8.81,7.62,13.62,.64-2.59,1.26-5.4,2.03-8.17,.62-2.24,1.11-4.59,2.19-6.6,1.3-2.42,2.97-5.57,6.47-3.38,3.05,1.91,3.79,4.86,1.38,8.38Z"/>
      <path class="cls-1" d="M46.43,46.11c-1.48-4-2.88-8.04-4.47-12-.9-2.24-1.59-4.54-5.22-4.03-1.38,.19-4.18-2.17-4.44-3.69-.29-1.68,1.16-4.33,2.67-5.41,.97-.69,4.27,.12,5.07,1.26,2.88,4.14,5.14,8.71,7.86,13.5,.67-2.54,1.34-5.27,2.11-7.97,.64-2.23,1.12-4.57,2.19-6.59,1.21-2.3,2.87-5.28,6.08-3.45,3.26,1.86,4.2,4.93,1.81,8.4-5.64-3.05-6.44-2.72-8.26,3.85-1.49,5.39-2.74,10.84-4.1,16.26-.43-.05-.86-.09-1.29-.14Z"/>
      <path class="cls-1" d="M354.79,171.68c-1.71-4.49-3.24-9.07-5.26-13.41-.55-1.19-2.6-1.67-3.9-2.55-1.8-1.22-4.74-2.32-4.99-3.83-.29-1.78,1.38-4.43,2.99-5.74,.75-.61,4.14,.53,4.97,1.78,2.8,4.21,4.99,8.83,7.59,13.62,.68-2.8,1.34-5.72,2.1-8.61,.51-1.92,.68-4.23,1.88-5.61,1.62-1.87,4.68-4.66,6.04-4.16,3.38,1.26,4.57,4.55,2.29,8.16-6-2.62-6.69-2.34-8.48,4.24-1.46,5.38-2.68,10.83-4,16.25-.41-.04-.82-.09-1.23-.13Z"/>
      <path class="cls-1" d="M596.01,49.35c-1.88-5.07-3.36-9.28-5.01-13.42-.86-2.14-1.7-4.03-4.99-3.7-1.47,.15-4.43-2.23-4.52-3.59-.12-1.92,1.42-4.47,3.03-5.74,.79-.62,4.16,.52,5,1.78,2.8,4.2,4.98,8.8,7.54,13.52,.75-3.04,1.48-6.17,2.31-9.27,.47-1.76,.85-3.62,1.73-5.18,1.35-2.37,2.76-5.74,6.32-3.86,3.14,1.66,4.1,4.64,2.1,8.04-6.37-2.15-7.08-1.78-8.91,5.25-.92,3.54-1.5,7.17-2.41,10.71-.43,1.66-1.29,3.21-2.21,5.44Z"/>
      <path class="cls-1" d="M17.91,131.36c-1.67-4.79-2.69-8.25-4.09-11.54-1.26-2.98-1.78-6.86-6.9-5.98-1.08,.18-3.72-2.52-3.73-3.91-.02-1.81,1.5-4.15,3.07-5.27,.88-.63,3.82,.19,4.73,1.28,2.08,2.49,3.63,5.48,5.11,8.4,.86,1.69,1.18,3.65,2.71,5.55,.9-3.38,1.76-6.78,2.7-10.15,.44-1.59,.82-3.24,1.57-4.69,1.25-2.39,2.89-5.16,6.07-3.53,3.19,1.64,4.11,4.55,1.99,7.91-5.87-2.78-6.32-2.69-8.19,3.51-1.2,3.96-1.82,8.08-2.83,12.1-.43,1.72-1.17,3.36-2.23,6.31Z"/>
      <path class="cls-1" d="M432.8,118.3c8.09,5.47,11.68,17.19,8.82,29.2-.84,3.54-2.25,6.94-3.35,10.42-.6,1.9-1.55,3.86-1.47,5.75,.09,2.31,1.1,4.58,1.71,6.87,1.83-.62,3.66-1.23,5.3-1.78-.33,3.53-1.02,8.48-5.89,8.07-4.59-.39-4.1-5.6-3.69-9.03,.55-4.56,1.64-9.18,3.27-13.47,4.13-10.87,2.69-20.58-5.28-29.07-2.69-2.86-1.81-4.82,.57-6.96Z"/>
      <path class="cls-1" d="M118.08,118c9.44,8.27,10.59,18.48,8.59,29.42-.71,3.89-2.39,7.59-3.56,11.4-.58,1.9-1.53,3.88-1.39,5.76,.16,2.13,1.36,4.18,2.11,6.26,1.7-.7,3.41-1.41,5.16-2.13-.08-.16,.21,.15,.15,.34-1.14,3.5-1.35,8.74-6.4,7.85-4.54-.8-3.86-5.82-3.44-9.26,.53-4.4,1.61-8.85,3.2-12.99,4.15-10.83,2.93-20.6-5.1-29.1-2.67-2.83-1.99-4.83,.69-7.55Z"/>
      <path class="cls-1" d="M161.66,141.62c-6.38,16.47-14.55,31.94-4.23,49.28-1.98,1.29-3.87,2.51-5.72,3.72-7.76-8.09-1.73-41.93,9.95-52.99Z"/>
      <path class="cls-1" d="M790.54,101.56c-1.37,1.21-2.54,2.93-4.13,3.56-15.91,6.28-31.89,12.39-47.86,18.52-.24,.09-.58-.08-2.01-.32,1.53-1.91,2.43-4.22,3.99-4.81,16.25-6.21,32.61-12.15,48.94-18.16,.36,.41,.72,.81,1.07,1.22Z"/>
      <path class="cls-1" d="M489.83,82.57c-3.45,5.33-.9,8.61,2.5,12.6,5.1,5.98,1.16,16.47-6.15,17.28-1.82,.2-4.97-1.44-5.65-3.03-2.2-5.17,3.82-22.81,9.3-26.85Zm-4.05,14.19c-.72,.16-1.44,.31-2.15,.47-.11,2.91-.22,5.83-.33,8.74l8.9-1.77c.07-.68,.13-1.36,.2-2.04-2.21-1.8-4.41-3.6-6.62-5.4Z"/>
      <path class="cls-1" d="M288.65,193.67c7.38-4.72,15.81-1.08,23.58-2.67,.18,.41,.36,.82,.54,1.23-1.76,1.05-3.51,2.1-5.36,3.21,.6,7.73-1.94,10.6-10.89,11.23-2,.14-4.11-1.21-6.16-1.88,.83-1.94,1.66-3.87,2.43-5.66,1.28,.31,1.62,.32,1.89,.47,1.95,1.12,3.85,2.34,5.87,3.3,.17,.08,1.78-2.16,1.65-2.3-1.71-1.8-3.36-4.05-5.54-4.89-2.33-.9-5.18-.42-7.81-.55-.07-.5-.13-1-.2-1.5Z"/>
      <path class="cls-1" d="M484.23,30.1c5.42,6.25,9.59-.51,14.31-1.74-.05,4.41-6.63,9.99-19.52,16.18,1.74-3.07,2.86-5.04,3.98-7.01-.37,.1-.74,.19-1.11,.29-.58-2.53-2.47-5.95-1.48-7.43,2.44-3.64,5.8-7.12,9.58-9.27,2.75-1.56,4.02,1.7,2.33,5.68-3.06,.43-5.68,.79-8.3,1.16,.07,.71,.14,1.43,.21,2.14Z"/>
      <path class="cls-1" d="M664.91,53.37c1.11-1.87,2.22-3.74,2.71-4.55-.97-3.22-3.16-6.69-2.23-8.14,2.38-3.71,5.74-7.23,9.52-9.45,2.86-1.68,4.23,1.36,2.74,5.55-3.11,.58-5.85,1.08-9.58,1.77,6.63,8.19,11,1.11,17.21-.34-4.57,9-13.33,10.8-19.06,16.19-.44-.35-.87-.7-1.31-1.05Z"/>
      <path class="cls-1" d="M600.86,87.11c11.69,5.67,11.98,6.52,5.7,15.71-11.06-4.09-12.08-6.8-5.7-15.71Z"/>
      <path class="cls-1" d="M89.34,28.08c-.06,3.72-2.98,6.47-6.74,6.36-3.76-.11-6.51-3-6.4-6.74,.11-3.68,3.1-6.52,6.76-6.42,3.67,.1,6.43,3.05,6.37,6.8Z"/>
      <path class="cls-1" d="M760.82,23.17c10.29,6.87,14.34,20.66,8.76,31.6-.08-1.67-.25-2.51-.14-3.32,1.2-8.61-2.68-15.2-8.59-20.79-2.74-2.6-3.36-4.74-.03-7.49Z"/>
      <path class="cls-1" d="M743.31,22.42c3.65-.07,6.69,2.86,6.77,6.5,.08,3.67-2.81,6.61-6.55,6.67-3.76,.06-6.72-2.75-6.79-6.45-.07-3.59,2.93-6.66,6.57-6.72Z"/>
      <path class="cls-1" d="M663.96,83.94c1.62-3.25,3.06-6.16,4.52-9.08,13.46,7.37,12.36,5.95,5.83,16.08-3.34-2.26-6.67-4.51-10.35-7Z"/>
      <path class="cls-1" d="M248.29,146.52c11.5,6.58,16.08,21.71,10.09,31.52,2.12-10.67-3.1-18.13-9.96-25.09-.97-.98-.13-3.74-.13-6.43Z"/>
      <path class="cls-1" d="M154.25,53.77c2.33-10.95-1.65-18.34-8.25-24.55-2.88-2.71-2.95-4.81-.04-7.24,10.29,5.79,15.08,22.21,8.29,31.8Z"/>
      <path class="cls-1" d="M433.58,91.73c1.75-9.99-2.45-17.51-9.25-24.08-2.65-2.56-2.56-2.65,.21-6.48,10.02,4.4,15.03,20.73,9.04,30.56Z"/>
      <path class="cls-1" d="M372.44,134.38c2.05-10.77-3.15-18.4-10.2-25.43-.88-.88,.03-3.56,.13-5.79,10.93,4.8,15.74,20.47,10.07,31.22Z"/>
      <path class="cls-1" d="M328.89,64.8c10.23,7.52,14.32,21.72,7.82,31.93,2.47-11.58-2.33-18.97-9.04-25.78-1.11-1.13-.49-3.96-.68-6.01,.63-.05,1.27-.1,1.9-.15Z"/>
      <path class="cls-1" d="M215.88,21.09c10.08,5.97,14.5,20.66,8.53,31.95,0-4.38,.94-7.9-.2-10.52-2.2-5.04-5.27-9.78-8.56-14.22-2.68-3.61-3.05-3.33,.23-7.21Z"/>
      <path class="cls-1" d="M278.49,20.15c11.57,7.55,16,22.59,9.32,32.81,2.55-11.71-2.37-19.13-9.18-25.99-1.03-1.04-.14-3.97-.14-6.83Z"/>
      <path class="cls-1" d="M725.22,99.35c2.36-10.92-1.87-18.68-9.03-25.18-2.96-2.69-1.28-4.57,.59-6.63,10.46,6.15,15.16,22.37,8.43,31.81Z"/>
      <path class="cls-1" d="M197.06,62.4c10.27,5.1,15.02,20.74,8.61,31.55,2.16-11.23-2.13-18.9-9.15-25.4-2.66-2.46-1.34-4.26,.54-6.15Z"/>
      <path class="cls-1" d="M8.95,22.1c12.04,6.49,16.44,21.56,9.78,31.63,2.45-11.6-2.37-19.1-9.23-25.95-1.04-1.04-.41-3.75-.55-5.68Z"/>
      <path class="cls-1" d="M651.42,80.26c1.68-9.8-2.64-17.22-9.35-23.52-2.94-2.76-1.87-4.72,.31-6.94,10.21,6.25,14.56,20.25,9.04,30.46Z"/>
      <path class="cls-1" d="M146.68,103.54c11.74,7.67,15.96,22.52,9.54,33.06,2.37-11.63-2.37-19.34-9.41-26.32-.98-.97-.14-3.78-.14-6.74Z"/>
      <path class="cls-1" d="M717.24,174.01c2.26-10.78-1.65-18.19-8.27-24.39-2.86-2.68-3.02-4.8-.08-7.25,10.03,4.17,14.98,23.24,8.35,31.64Z"/>
      <path class="cls-1" d="M372.49,16.52c11.64,6.76,16.07,21.58,10.23,31.79,2.01-10.72-3.05-18.36-10.1-25.36-.96-.96-.13-3.71-.13-6.43Z"/>
      <path class="cls-1" d="M519.17,53.22c1.51-10.12-3.05-17.6-9.81-24.4-1.15-1.16-.71-3.89-1.14-6.81,11.34,5.06,16.2,19.99,10.95,31.21Z"/>
      <path class="cls-1" d="M64.27,119.09c.95-1.68,1.67-2.97,2.38-4.24,10.22,4.43,15.42,21.22,8.78,31.93,2.69-12.56-3.24-20.36-11.16-27.7Z"/>
      <path class="cls-1" d="M550.68,93.39c8.89,6.23,13.28,16.85,10.28,25.21-.58-.74-1.33-1.26-1.4-1.86-.82-6.46-4.23-11.52-8.83-15.77-2.79-2.57-3.27-4.77-.05-7.58Z"/>
      <path class="cls-1" d="M206.8,42.66c-.16-.25,.04-.08,0,.03-1.11,3.54-1.36,8.71-6.28,8.14-5.11-.59-4.42-5.83-3.86-9.37,.94-5.97,2.79-11.81,4.25-17.7,.53,.13,1.07,.25,1.6,.38-.73,2.71-1.5,5.42-2.17,8.15-.47,1.93-1.21,3.94-1.06,5.84,.17,2.17,1.21,4.26,1.87,6.39,1.84-.61,3.68-1.21,5.64-1.86Z"/>
      <path class="cls-1" d="M496.21,159.24c-.81,2.99-1.71,5.96-2.39,8.98-.44,1.92-.96,3.96-.71,5.86,.23,1.78,1.02,3.91,2.32,4.97,.64,.52,2.97-1.05,5.1-1.91-.45,1.54-.5,3.44-1.46,4.58-1.34,1.59-3.35,2.61-5.07,3.87-1.2-1.78-3.23-3.46-3.46-5.35-.89-7.59,1.27-14.62,5.68-20.99Z"/>
      <path class="cls-1" d="M16.95,180.84c-1.04,4.82-2.36,9.61-2.97,14.48-.23,1.84,.81,4.24,2.08,5.65,.48,.53,3.26-1,5-1.59,0,.01,.27,.55,.13,.94-1.12,3.19-1.59,7.72-6.1,7.14-4.67-.59-4.26-5.25-3.77-8.47,.94-6.27,2.69-12.43,4.11-18.63,.51,.16,1.02,.32,1.53,.47Z"/>
      <path class="cls-1" d="M742.72,59.8c-1.05,4.82-2.37,9.61-3.02,14.48-.25,1.89,.48,4.57,1.79,5.76,.78,.71,3.56-.79,5.23-1.24-.27,3.41-.96,8.36-5.88,7.89-4.89-.47-4.48-5.77-3.85-9.38,1.04-6.03,2.92-11.92,4.44-17.87,.43,.12,.86,.24,1.29,.36Z"/>
      <path class="cls-1" d="M320.8,89.68c-.14-.19,.07-.02,.04,.07-1.22,3.62-1.29,9.11-6.64,8.24-4.89-.8-4.16-6-3.61-9.57,.82-5.44,2.56-10.74,3.9-16.1,.54,.14,1.07,.28,1.61,.42-.62,2.34-1.29,4.66-1.85,7.02-.42,1.77-1.16,3.62-.96,5.35,.26,2.32,1.29,4.55,1.98,6.81,1.81-.73,3.63-1.47,5.54-2.24Z"/>
      <path class="cls-1" d="M186.83,73.52c-.96,4.51-2.25,8.98-2.73,13.53-.21,2.03,1.19,4.23,1.86,6.35,1.81-.71,3.63-1.42,5.54-2.17-.19-.31,0-.15-.03-.03-.77,3.73-1.24,8.72-5.94,8.46-5.27-.29-4.59-5.62-4.07-9.15,.86-5.81,2.66-11.49,4.06-17.22l1.32,.24Z"/>
      <path class="cls-1" d="M452.11,61.18c-.02-.09,.19,.26,.11,.53-.91,3.32-1.41,7.69-5.82,7.4-4.78-.31-4.54-4.95-4.07-8.18,.91-6.27,2.61-12.43,3.99-18.63,.61,.13,1.22,.27,1.84,.4-.31,1.21-.61,2.43-.94,3.64-.38,1.44-.86,2.86-1.16,4.31-.44,2.1-1.15,4.24-1.01,6.32,.14,1.98,.81,4.28,2.09,5.66,.53,.57,3.25-.9,4.97-1.45Z"/>
      <path class="cls-1" d="M584.94,176.54c-1.1,4.8-2.53,9.56-3.15,14.42-.25,1.97,1.25,4.17,1.95,6.27,1.71-.62,3.43-1.23,5.27-1.9-.14-.24,.17,.05,.12,.23-.96,3.61-1.32,8.63-6.29,7.97-4.79-.64-4.15-5.68-3.62-9.04,.98-6.18,2.82-12.22,4.3-18.32,.47,.12,.95,.25,1.42,.37Z"/>
      <path class="cls-1" d="M539.77,53.77c-1.27,3.7-1.11,9.1-6.49,8.41-5.04-.65-4.28-5.85-3.76-9.38,.83-5.62,2.57-11.11,3.92-16.66,.54,.12,1.08,.25,1.63,.37-.68,2.65-1.44,5.29-2.02,7.96-.42,1.93-.99,3.96-.78,5.86,.22,1.96,1.31,3.83,2.02,5.74,1.67-.7,3.34-1.41,5.48-2.31Z"/>
      <path class="cls-1" d="M383.15,73.73c-.8,2.85-1.66,5.68-2.36,8.55-.47,1.93-1.11,3.96-.93,5.88,.2,2,.89,4.3,2.2,5.68,.52,.55,3.26-.99,5.25-1.67-.33,1.18-.32,2.9-1.17,3.88-1.48,1.7-3.49,2.94-5.28,4.38-1.22-1.94-3.19-3.75-3.53-5.83-1.02-6.21,1.3-14.43,5.83-20.85Z"/>
      <path class="cls-1" d="M571.96,26.15c-1.21,6.4-2.39,11.38-2.95,16.42-.19,1.68,.82,3.98,2.08,5.11,.63,.57,3.05-.84,5.11-1.5-.49,1.59-.63,3.61-1.66,4.95-1.07,1.39-3.13,3.07-4.51,2.87-1.38-.19-3.28-2.43-3.51-3.98-1.19-8.1,1.05-15.55,5.44-23.88Z"/>
      <path class="cls-1" d="M582.85,102.18c-.7,2.63-1.47,5.24-2.08,7.9-.44,1.93-1.08,3.95-.88,5.85,.2,1.98,1.3,3.87,2.01,5.8,1.7-.64,3.4-1.28,5.16-1.95,0,0,.27,.5,.15,.85-1.16,3.33-1.58,8.11-6.41,7.3-4.51-.76-3.98-5.41-3.51-8.67,.86-5.9,2.48-11.68,3.78-17.51,.59,.15,1.19,.3,1.78,.44Z"/>
      <path class="cls-1" d="M196.64,179.46c-.7,5.64-3.14,9.32-6.19,8.31-4.83-1.59-4.24-6.09-3.69-9.65,.86-5.54,2.61-10.95,3.99-16.41,.47,.12,.94,.25,1.42,.37-.91,4.16-2.18,8.28-2.58,12.49-.21,2.2,1.12,4.55,1.76,6.83,1.85-.67,3.69-1.35,5.3-1.94Z"/>
      <path class="cls-1" d="M18.29,87.68c-1.15,3.45-1.13,8.58-6.2,8.08-4.96-.49-4.26-5.58-3.78-8.95,.85-5.98,2.59-11.83,3.95-17.74l1.72,.41c-.72,2.7-1.52,5.38-2.13,8.1-.47,2.1-1.08,4.28-.95,6.38,.12,1.84,.71,4.26,2,5.19,.88,.64,3.3-.84,5.38-1.48Z"/>
      <path class="cls-1" d="M64.76,96.31c-1.21,3.68-1.29,8.83-6.24,8.36-5.17-.49-4.52-5.74-3.97-9.3,.89-5.82,2.69-11.49,4.1-17.23,.5,.13,1.01,.25,1.51,.38-.74,2.89-1.55,5.77-2.2,8.69-.39,1.78-.9,3.66-.68,5.41,.25,1.99,1.25,3.89,1.93,5.84,1.69-.65,3.37-1.3,5.55-2.15Z"/>
      <path class="cls-1" d="M124.21,97.51c-1.2,3.67-1.24,9.04-6.49,8.38-5.02-.63-4.24-5.92-3.66-9.48,.97-5.98,2.79-11.82,4.26-17.71,.51,.13,1.03,.26,1.54,.38-.81,2.98-1.7,5.93-2.41,8.93-.46,1.94-1.06,3.98-.85,5.9,.22,1.99,1.34,3.89,2.06,5.82,1.69-.68,3.39-1.36,5.54-2.22Z"/>
      <path class="cls-1" d="M362.07,44.34c-1.42,3.52-1.32,9.12-6.56,8.36-5.15-.75-4.33-6.19-3.76-9.89,.84-5.45,2.64-10.75,5.19-15.82-.87,4.37-2.06,8.72-2.47,13.13-.19,2.03,1.16,4.2,1.81,6.31,1.84-.66,3.68-1.33,5.78-2.08Z"/>
      <path class="cls-1" d="M634.41,78.76c-1.25,3.65-1.27,8.72-6.32,8.27-5.09-.45-4.26-5.52-3.78-8.86,.87-6.05,2.61-11.97,3.99-17.94,.58,.14,1.16,.27,1.74,.41-.78,2.84-1.63,5.67-2.32,8.54-.47,1.94-1.15,3.97-.96,5.87,.21,1.99,1.36,3.89,2.1,5.83,1.72-.66,3.44-1.31,5.55-2.12Z"/>
      <path class="cls-1" d="M702.13,42.82c-.24,.76-.44,1.38-.62,2-.94,3.21-1.67,7.09-6.14,6.3-4.18-.74-3.91-4.82-3.47-7.69,.98-6.43,2.68-12.74,4.09-19.11,.58,.13,1.17,.27,1.75,.4-.77,2.84-1.62,5.66-2.29,8.53-.45,1.93-1.1,3.97-.85,5.86,.28,2.11,1.47,4.1,2.27,6.14,1.69-.78,3.37-1.56,5.26-2.44Z"/>
      <path class="cls-1" d="M687.23,164.58c-.8,3-1.7,5.98-2.37,9.01-.43,1.94-.85,3.98-.64,5.91,.2,1.85,1.21,3.6,1.86,5.4,1.6-.6,3.19-1.19,5.75-2.15-1.19,2.61-1.84,5.08-3.28,6.95-1.87,2.43-5.41,1.68-6.1-1.56-.78-3.62-.93-7.6-.32-11.24,.73-4.32,2.58-8.46,3.95-12.68,.38,.12,.76,.23,1.14,.35Z"/>
      <path class="cls-1" d="M250.5,67.35c-.64,2.36-1.34,4.71-1.89,7.09-.45,1.93-1.16,3.96-.95,5.85,.22,1.98,1.41,3.85,2.18,5.77,1.69-.71,3.38-1.41,5.16-2.16-.1-.18,.21,.12,.16,.3-1.06,3.54-1.26,8.62-6.34,7.95-4.91-.65-4.04-5.66-3.63-9.01,.67-5.47,2.23-10.83,3.41-16.24,.63,.15,1.26,.3,1.9,.45Z"/>
      <path class="cls-1" d="M704.08,191.55c-.79-.89-2.09-1.67-2.29-2.67-1.06-5.49,1.6-25.07,7.32-32.33-1.26,5.41-2.73,9.81-3.21,14.31-.56,5.2-.12,10.49-.38,15.73-.09,1.72-1.02,3.4-1.57,5.11,0,0,.13-.14,.13-.14Z"/>
      <path class="cls-1" d="M766.44,206.61c1.66-2.21,3.53-4.3,4.92-6.67,.94-1.61,2.01-3.91,1.49-5.35-.4-1.12-3.17-1.38-5.88-2.39,1.32-1.59,2.48-3.69,4.26-4.85,.98-.64,4.03-.11,4.33,.64,.82,1.98,1.54,4.79,.71,6.5-2.27,4.64-5.36,8.89-8.13,13.29-.57-.39-1.14-.78-1.7-1.16Z"/>
      <path class="cls-1" d="M108.27,46.44c.32-.9,.39-2.42,1.14-2.92,1.77-1.17,4.2-2.91,5.72-2.42,1.38,.44,2.91,3.68,2.64,5.42-1.01,6.53-5.1,11.26-10.89,14.65,1.89-2.51,3.99-4.89,5.61-7.57,.94-1.56,1.88-3.88,1.35-5.31-.39-1.03-3.21-1.14-5.56-1.85Z"/>
      <path class="cls-1" d="M524.96,163.83c1.85-2.32,3.99-4.48,5.46-7.02,1.07-1.83,1.26-4.17,1.84-6.28-1.78-.39-3.56-.79-5.69-1.26,.31-.91,.37-2.61,1.2-3.17,1.75-1.18,4-2.55,5.85-2.31,1.07,.14,2.63,3.37,2.43,5.03-.81,6.85-5.18,11.54-11.09,15Z"/>
      <path class="cls-1" d="M183.39,32.15c.49-3.53,2.33-6.44,6.4-5.51,4.23,.97,3.53,4.63,2.52,7.76-1.83,5.67-5.52,9.9-10.82,12.78,2.02-2.56,4.25-4.99,5.97-7.73,.97-1.54,1.82-3.86,1.32-5.37-.33-1-3.13-1.19-5.39-1.93Z"/>
      <path class="cls-1" d="M425.56,129.98c-2.12-1.61-4.1-3.45-6.4-4.74-1.75-.98-4-1.88-5.82-1.57-.84,.14-1.19,3.24-1.85,5.27-.46-.11-1.84-.04-2.22-.62-1.31-2.01-2.27-4.24-3.36-6.39,2.16-.77,4.51-2.51,6.44-2.13,5.85,1.15,10.35,4.74,13.2,10.18Z"/>
      <path class="cls-1" d="M43.44,211.58c1.64-2.06,3.55-3.97,4.85-6.23,.99-1.73,1.81-4,1.51-5.83-.13-.82-3.21-1.15-5.01-1.73,.65-4.36,2.98-6.73,6.26-5.58,4.12,1.45,3.65,5.07,2.21,7.83-2.32,4.47-5.42,8.54-8.2,12.78-.54-.41-1.08-.83-1.62-1.24Z"/>
      <path class="cls-1" d="M340.49,137.28c1.96-2.44,4.16-4.73,5.78-7.38,1.03-1.68,1.7-3.95,1.46-5.82-.09-.7-3.22-1.01-6.14-1.82,1.62-1.87,2.97-3.97,4.85-5.34,.81-.59,3.72-.01,3.94,.63,.75,2.18,1.7,5.14,.8,6.87-2.6,4.97-6.08,9.48-9.21,14.18-.5-.44-1-.88-1.49-1.32Z"/>
      <path class="cls-1" d="M398.28,70.05c.41-1.08,.5-2.64,1.27-3.11,1.81-1.12,4.06-2.51,5.91-2.24,1.09,.16,2.64,3.4,2.43,5.06-.89,6.84-5.31,11.54-11.14,15.16,.89-1.18,1.77-2.36,2.68-3.53,1.02-1.31,2.37-2.47,3.03-3.94,.83-1.84,1.6-4,1.34-5.87-.09-.68-3.23-.94-5.51-1.53Z"/>
      <path class="cls-1" d="M455.55,125.3c1.82-2.31,3.91-4.47,5.38-7,.97-1.67,1.62-3.97,1.27-5.77-.14-.75-3.25-.93-5.34-1.45,.31-.92,.35-2.64,1.18-3.19,1.75-1.16,3.94-2.31,5.89-2.22,.9,.04,2.49,3.07,2.36,4.62-.57,6.91-4.91,11.59-10.74,15.01Z"/>
      <path class="cls-1" d="M735.87,181.53c1.9-2.44,4.03-4.74,5.62-7.36,.93-1.55,1.75-3.89,1.21-5.35-.37-.99-3.18-1.08-5.91-1.86,1.36-1.75,2.46-3.91,4.22-5.14,.97-.68,4.16-.21,4.4,.46,.79,2.15,1.64,5.12,.75,6.91-2.38,4.74-5.66,9.03-8.59,13.5l-1.7-1.15Z"/>
      <path class="cls-1" d="M627.39,26.86c.53-1.2,.74-2.89,1.66-3.47,1.66-1.05,3.91-2.2,5.6-1.84,1.13,.24,2.56,3.08,2.42,4.63-.6,6.97-5.12,11.6-10.91,15.28,1.82-2.36,3.9-4.57,5.39-7.13,1-1.71,1.17-3.91,1.71-5.88-1.76-.48-3.52-.96-5.87-1.59Z"/>
      <path class="cls-1" d="M370.22,172.73c1.81-2.34,3.84-4.54,5.34-7.06,1.02-1.72,2-4.07,1.58-5.79-.23-.96-3.37-1.21-5.46-1.87,.19-.61,.21-2.18,.93-2.64,1.91-1.22,4.09-2.46,6.23-2.59,.7-.04,2.44,3.43,2.25,5.14-.76,6.89-5.58,11.21-10.88,14.81Z"/>
      <path class="cls-1" d="M330.28,42.31c1.94-2.45,4.09-4.77,5.75-7.39,.98-1.55,1.96-3.86,1.46-5.33-.36-1.07-3.13-1.33-5.82-2.31,1.18-1.55,2.24-3.7,3.96-4.91,.97-.68,4.04-.31,4.39,.42,.91,1.93,1.81,4.81,.98,6.43-2.58,5.02-5.96,9.63-9.03,14.4-.56-.43-1.12-.87-1.68-1.3Z"/>
      <path class="cls-1" d="M572.72,68.19c.56-4.31,3-6.81,6.28-5.74,3.94,1.29,3.37,4.47,2.44,7.43-1.78,5.7-5.26,10.14-10.71,12.97,1.88-2.41,4-4.68,5.54-7.29,1.01-1.7,1.71-3.97,1.45-5.84-.1-.72-3.21-1.03-5.01-1.54Z"/>
      <path class="cls-1" d="M417.47,176.67c.7-3.77,2.6-6.85,6.8-5.71,4.05,1.11,3.57,5.14,2.13,7.89-2.35,4.5-5.51,8.57-8.33,12.83-.5-.34-1.01-.69-1.51-1.03,1.8-2.41,3.85-4.69,5.32-7.29,.87-1.54,1.42-3.8,.92-5.36-.26-.82-3.08-.83-5.33-1.33Z"/>
      <path class="cls-1" d="M32.48,75.58c.44-1.11,.59-2.75,1.45-3.35,1.61-1.13,3.93-2.6,5.42-2.15,1.32,.39,2.82,3.27,2.69,4.93-.51,6.53-4.72,10.98-10.28,14.46,.86-1.14,1.72-2.28,2.58-3.42,.9-1.19,2.09-2.26,2.62-3.59,.68-1.72,1.4-3.82,.95-5.43-.22-.8-3.04-.86-5.44-1.44Z"/>
      <path class="cls-1" d="M164.59,169.29c1.74-2.19,3.77-4.21,5.12-6.61,1.03-1.84,1.18-4.17,1.72-6.27-1.75-.39-3.5-.78-5.75-1.28,.57-1.25,.85-3.18,1.95-3.98,1.43-1.04,3.67-1.86,5.25-1.48,1.11,.27,2.44,2.71,2.39,4.15-.22,7.24-4.91,11.83-10.69,15.47Z"/>
      <path class="cls-1" d="M548.68,162.04c.32-.92,.38-2.49,1.14-2.98,1.8-1.15,4.02-2.55,5.88-2.31,1.07,.14,2.64,3.37,2.45,5.03-.78,6.63-4.95,11.24-10.67,14.64,1.87-2.4,3.97-4.67,5.51-7.26,.93-1.56,1.74-3.91,1.19-5.37-.38-1-3.19-1.09-5.49-1.75Z"/>
      <path class="cls-1" d="M426.14,40.19c1.74-2.19,3.76-4.22,5.14-6.61,1.07-1.86,1.34-4.18,1.96-6.29-1.77-.49-3.55-.98-5.56-1.54,.21-.7,.19-2.25,.9-2.75,1.72-1.23,4.04-2.98,5.64-2.59,1.34,.33,3.03,3.54,2.8,5.23-.91,6.59-5.1,11.28-10.88,14.55Z"/>
      <path class="cls-1" d="M11.87,160.86c1.92-2.41,4.06-4.68,5.66-7.28,1.04-1.69,2.06-4.06,1.63-5.75-.26-1-3.37-1.27-5.45-1.95,.28-.78,.36-2.52,1.22-3.07,1.75-1.14,3.97-2.26,5.9-2.12,.92,.07,2.48,3.11,2.31,4.65-.8,7.15-5.26,11.96-11.28,15.53Z"/>
      <path class="cls-1" d="M225.29,97.62c1.7-2.22,3.62-4.31,5.02-6.71,.83-1.42,1.67-3.91,1.01-4.86-.8-1.14-3.2-1.14-5.57-1.83,.44-1,.72-3.02,1.87-3.92,1.37-1.07,3.66-1.87,5.22-1.47,1.12,.28,2.46,2.74,2.4,4.18-.26,6.73-4.32,11.31-9.95,14.6Z"/>
      <path class="cls-1" d="M278.34,190.32c1.84-2.34,3.92-4.53,5.42-7.06,1.01-1.7,1.2-3.88,1.76-5.85-1.75-.48-3.5-.97-5.86-1.62,.59-1.22,.96-3.19,2.15-4.14,1.24-1,3.51-1.73,4.86-1.26,1.22,.43,2.6,2.67,2.56,4.08-.23,7.46-5.02,12.19-10.89,15.86Z"/>
      <path class="cls-1" d="M77.64,108.44c1.83-2.3,3.91-4.44,5.39-6.94,1-1.69,1.68-3.95,1.44-5.81-.09-.71-3.15-1.04-5.21-1.65,.17-3.43,1.89-6.17,5.92-5.66,4.65,.59,4.14,4.75,2.88,7.36-2.38,4.89-5.74,9.31-8.7,13.93l-1.72-1.23Z"/>
      <path class="cls-1" d="M202.47,187.62c1.6-2.09,3.46-4.05,4.73-6.33,.96-1.73,1.76-3.99,1.42-5.78-.16-.82-3.24-1.08-5.04-1.61,.79-4.43,3.27-6.83,6.47-5.6,3.77,1.45,3.51,4.91,2.18,7.52-2.29,4.54-5.36,8.69-8.11,13-.55-.4-1.1-.8-1.65-1.2Z"/>
      <path class="cls-1" d="M233.81,143.09c-.59,.04-2.06,.61-2.76,.11-1.73-1.23-4.1-2.82-4.31-4.5-.16-1.28,2.41-3.83,4.13-4.22,5.78-1.32,10.99,.74,15.56,4.61-2.15-.67-4.25-1.61-6.45-1.93-2.01-.3-4.39-.48-6.04,.38-.75,.39-.13,3.42-.13,5.56Z"/>
      <path class="cls-1" d="M669.23,189.81c.56-1.13,.92-3.07,2.07-3.85,1.46-.99,3.76-1.73,5.32-1.27,1.1,.33,2.31,2.9,2.16,4.33-.66,6.35-4.25,11.04-9.68,14.42,1.42-1.94,3.07-3.77,4.2-5.87,.95-1.76,2.12-4.11,1.62-5.7-.34-1.08-3.4-1.31-5.69-2.06Z"/>
    </g>
  </g>
</svg>