<svg width="197" height="95" viewBox="0 0 197 95" fill="none" xmlns="http://www.w3.org/2000/svg">
<path d="M60.6602 83.32C58.6102 83.71 56.7002 84.16 54.7702 84.41C52.5502 84.7001 50.6402 83.51 48.5802 82.98C45.6702 82.23 45.6202 85.41 44.5002 86.94C43.2402 88.66 44.7702 89.6 46.1602 90.3C51.9002 93.18 57.5702 90.52 60.6502 83.32H60.6602ZM28.4502 63.52C33.5602 66.19 40.0902 63.71 39.5102 58.86C39.0602 55.07 38.1602 52.27 42.1902 50.2C42.8002 49.89 43.2302 48.35 42.3902 47.5C41.4202 46.52 40.5702 47.5 39.8202 48.03C36.3302 50.49 32.8902 53.02 35.0602 58.14C35.9802 60.29 34.5102 61.13 33.0402 62.01C31.6502 62.85 29.7302 62.15 28.4502 63.52Z" fill="white"/>
<path d="M131.93 29.5301C131.83 36.9801 132.37 44.4201 131.54 51.8801C130.91 57.4701 129.19 62.49 125.79 66.95C125.35 67.33 124.9 67.7101 124.46 68.0801C125.2 68.6501 125.95 68.41 126.71 68.14C133.31 65.76 139.27 62.1501 145.2 58.4901C146.14 57.9101 147.07 56.67 148.27 57.42C149.93 58.45 148.38 59.7901 148.21 60.9701C148.02 62.2601 147.34 63.49 147.18 64.78C146.89 67.15 146.94 69.51 149.46 70.85C151.81 72.1 153.37 70.2001 155.35 69.5501C159.85 68.0501 162.11 65.7201 160.81 60.7901C160.63 60.09 161.12 59.18 161.42 58.41C161.66 57.81 162.07 57.2701 162.63 56.34C164.73 59.2201 167.3 60.15 170.4 58.46C173.55 56.75 173.08 53.8201 172.84 50.9901C171.49 35.3001 171.49 35.22 175.97 27.05C176.03 35.81 177.32 43.99 176.19 52.14C175.24 58.97 173.89 65.83 165.4 67.53C163.39 72.5201 157.29 71.68 154.31 75.31C152.17 77.91 149.62 79.82 146.13 77.99C142.65 76.16 142.98 72.8301 143.48 69.6501C143.73 68.0601 144.35 66.5201 144.95 64.4701C142.07 64.68 140.33 66.4901 138.42 67.7901C130.28 73.3 121.89 78.4001 112.27 80.7901C103.42 82.9901 95.1701 81.7201 88.3901 74.3701C98.8701 75.3801 109.06 74.16 119.07 71.4001C119.78 71.25 120.04 70.9701 119.33 70.4401C116.46 69.7301 113.6 69.01 110.67 68.28C111.12 67.14 112.03 67.5201 112.7 67.4101C124.38 65.5401 128.65 60.64 128.09 48.96C127.77 42.3 126.95 35.68 130.46 29.5301C130.96 29.5301 131.45 29.5301 131.95 29.5301H131.93ZM122.76 69.07C122.74 69.32 122.72 69.56 122.7 69.81C122.79 69.69 122.96 69.59 122.97 69.46C122.98 69.33 122.84 69.2 122.77 69.06L122.76 69.07Z" fill="white"/>
<path d="M78.0698 80.9C78.7998 74.56 82.1998 69.62 87.0498 65.94C90.2998 63.48 92.5698 60.6 94.7498 57.25C97.9498 52.34 101.01 46.82 109 50.54C111.17 51.55 112.8 47.53 113.16 44.99C113.56 42.18 114.33 39.58 116.1 35.79C116.24 38.69 116.28 40.34 116.4 41.99C116.54 44.01 117.24 45.67 119.65 45.51C122.16 45.34 121.91 43.18 121.67 41.74C120.52 34.85 121.67 28.41 125.65 22.27C125.65 28.16 125.71 34.06 125.63 39.95C125.58 43.87 124.29 47.45 122.18 50.73C119.28 55.23 117.1 55.28 113.63 50.99C110.36 53.52 108.92 57.52 106.08 60.66C106.22 58.41 106.98 56.09 104.34 55.18C101.02 54.03 98.7798 56.27 96.2998 57.86C96.6398 58.37 96.7598 58.74 97.0098 58.89C98.8098 59.98 102.51 59.17 102.02 62.51C101.54 65.76 99.9898 68.9 95.8998 69.4C92.5798 69.8 89.4098 70.67 86.4498 72.32C83.1598 74.15 80.8598 76.67 81.1498 80.61C81.4498 84.69 84.4098 86.57 87.9598 87.59C96.1798 89.94 104.1 87.84 111.99 85.75C120.06 83.61 127.5 79.92 134.87 76.09C135.06 76.28 135.24 76.46 135.43 76.65C133.03 79.79 130.64 82.94 128.22 86.06C127.83 86.56 127.27 87.34 126.8 87.33C116.95 87.1 108.8 93.76 99.0298 94.06C94.6998 94.19 90.4098 94.6 86.2198 93.4C82.2498 92.27 78.8498 90.35 78.1798 85.68C78.1498 84.1 78.1198 82.51 78.0898 80.93L78.0698 80.9Z" fill="white"/>
<path d="M55.78 65.87C48.32 70.17 41.33 75.27 33.43 78.84C24.48 82.87 15.52 85.03 6.11 80.44C3.9 79.36 1.92 78.03 0 75.39C7.31 75.58 13.88 76.19 20.41 75.01C33.54 72.65 45.37 67.19 56.58 60.19C57.78 59.44 59.1 57.72 60.49 58.75C61.97 59.84 60.52 61.57 60.08 62.85C59.41 64.78 58.91 66.68 59.25 68.69C59.81 71.98 62.73 73.63 65.52 72.02C67.73 70.74 69.27 68.4 72.48 69.15C73.64 69.42 73.61 67.87 73.19 66.89C71.78 63.62 72.93 60.76 74.65 57.57C76.79 60.29 79.27 61.31 82.41 59.7C85.68 58.02 85.14 55.08 84.91 52.29C84.0967 42.5033 84.7067 35.41 86.74 31.01C89.37 42.12 89.8 52.26 85.88 62.29C85.3 63.77 84.2 65.78 82.93 66.15C77.71 67.67 75.2 73.62 69.4 74.04C67.76 74.16 67.07 75.79 66.12 76.92C64 79.43 61.42 80.91 58.24 79.31C55.04 77.7 54.93 74.59 55.37 71.5C55.61 69.87 56.1 68.27 56.48 66.66C56.65 66.44 56.83 66.22 57 65.99C56.59 65.95 56.19 65.91 55.78 65.88V65.87Z" fill="white"/>
<path d="M103.14 0C102.87 7.35 99.54 11.86 95.62 16.03C89.75 22.27 82.49 26.71 75.39 31.34C64.52 38.42 53.48 45.29 45.91 56.27C45.79 56.45 45.3 56.38 44.54 56.5C46.24 49.35 50.39 44.07 55.62 39.51C64.43 31.83 74.82 26.38 84.08 19.35C91.1 14.03 98.22 8.82 103.13 0.01L103.14 0Z" fill="white"/>
<path d="M196.86 0.560059C197.32 5.35006 194.39 8.38006 191.74 11.4301C187.23 16.6201 181.57 20.4701 175.88 24.2501C162.98 32.8201 149.18 40.2901 140.07 53.5701C141.79 44.1701 147.71 37.7801 154.96 32.5301C163.7 26.2001 172.7 20.2301 181.52 14.0001C187.05 10.1001 192.06 5.57006 196.85 0.560059H196.86Z" fill="white"/>
<path d="M155.01 81.61C150.91 88.9 147.85 90.79 141.93 89.31C140 88.83 137 88.36 138.44 85.3C139.34 83.4 139.78 79.69 143.96 81.94C146.89 83.51 147.52 83.11 155.01 81.61Z" fill="white"/>
<path d="M60.6601 83.32C57.5901 90.51 51.9101 93.18 46.1701 90.3C44.7701 89.6 43.2501 88.66 44.5101 86.94C45.6301 85.41 45.6701 82.23 48.5901 82.98C50.6501 83.51 52.5601 84.7 54.7801 84.41C56.7101 84.16 58.6101 83.71 60.6701 83.32H60.6601Z" fill="white"/>
<path d="M28.4502 63.52C29.7302 62.15 31.6402 62.85 33.0402 62.01C34.5102 61.13 35.9802 60.29 35.0602 58.14C32.8802 53.02 36.3202 50.49 39.8202 48.03C40.5702 47.5 41.4202 46.51 42.3902 47.5C43.2302 48.35 42.8002 49.89 42.1902 50.2C38.1602 52.27 39.0602 55.07 39.5102 58.86C40.0902 63.72 33.5602 66.19 28.4502 63.52Z" fill="white"/>
<path d="M78.0702 80.9001C78.1002 82.4801 78.1302 84.0701 78.1602 85.6501C77.4902 85.2601 76.8402 84.58 76.2702 85.84C74.7102 89.28 72.6302 89.44 70.1202 86.74C69.3502 85.91 67.1602 85.8501 68.0802 84.1601C69.1402 82.1901 69.8202 79.65 72.0402 78.75C72.8402 78.43 74.3602 79.71 75.4702 80.39C76.3102 80.9 76.8402 82.4901 78.0702 80.9001Z" fill="white"/>
<path d="M172.08 79.94C171.35 81.92 170.7 85.13 168.42 84.87C166.65 84.66 163.07 83.19 163.38 80.51C163.61 78.51 164.79 75.21 167.59 75.19C169.83 75.18 171.85 76.96 172.08 79.94Z" fill="white"/>
<path d="M109.52 34.3501C107.59 34.2501 106.28 33.5601 106.15 31.4701C105.99 28.8301 107.55 29.5201 109.05 29.9201C110.33 30.2601 111.15 29.5001 112.03 28.6501C113.64 27.0901 113.97 29.6101 115.13 29.8901C116.01 30.1101 115.36 31.7101 114.44 32.2001C112.84 33.0301 111.14 33.6601 109.52 34.3501Z" fill="white"/>
<path d="M100.01 41.1501C99.0302 39.9401 101.8 37.7801 98.6302 37.2801C97.4102 37.0901 97.8102 35.6701 98.4002 34.8301C98.9702 34.0101 99.7602 33.3601 100.88 33.4701C102.13 33.5901 102.48 34.5501 102.6 35.5501C102.86 37.8101 102.4 39.8001 100.02 41.1501H100.01Z" fill="white"/>
<path d="M79.5899 40.77C78.1999 45.16 76.7599 47.83 72.1099 47.41C74.5199 45.28 76.6399 43.39 79.5899 40.77Z" fill="white"/>
<path d="M131.93 29.53C131.43 29.53 130.94 29.53 130.44 29.53C130.82 28.55 131.19 27.58 131.67 26.33C132.49 27.72 132.22 28.63 131.93 29.54V29.53Z" fill="white"/>
<path d="M119.32 70.4301C120.03 70.9701 119.77 71.2401 119.06 71.3901C119.15 71.0701 119.23 70.7501 119.32 70.4301Z" fill="white"/>
<path d="M134.85 76.06C135.24 75.59 135.65 75.11 136.2 75.82C136.23 75.86 135.68 76.34 135.41 76.62C135.22 76.43 135.04 76.25 134.85 76.06Z" fill="white"/>
<path d="M61.77 82.42C61.88 82.63 62.02 82.84 62.06 83.07C62.08 83.15 61.86 83.27 61.75 83.38C61.64 83.17 61.5 82.96 61.45 82.74C61.43 82.66 61.65 82.54 61.77 82.43V82.42Z" fill="white"/>
<path d="M126.71 68.15C125.95 68.42 125.19 68.66 124.46 68.09C124.9 67.71 125.35 67.33 125.79 66.96C126.1 67.36 126.4 67.76 126.71 68.16V68.15Z" fill="white"/>
<path d="M122.77 69.08C122.84 69.21 122.98 69.35 122.97 69.47C122.96 69.59 122.8 69.7 122.7 69.82C122.72 69.57 122.74 69.33 122.77 69.08Z" fill="white"/>
<path d="M55.7798 65.87C56.1898 65.91 56.5898 65.95 56.9998 65.98C56.8298 66.2 56.6498 66.42 56.4798 66.65C56.2498 66.39 56.0198 66.13 55.7898 65.87H55.7798Z" fill="white"/>
</svg>
